<svg viewBox="22.502250000000004 261.309584178499 2100.5932500000004 857.4807724814059" xmlns="http://www.w3.org/2000/svg" xmlns:xlink="http://www.w3.org/1999/xlink" xmlns:blush="http://design.blush" overflow="visible" width="2100.5932500000004px" height="857.4807724814059px"><defs><rect id="mastersceneoffice-hours-path-1" x="0" y="0" width="843" height="393"/></defs><g id="Master/Scene/Office Hours" stroke="none" stroke-width="1" fill="none" fill-rule="evenodd" blush:i="0"><g id="Small Elements" transform="translate(314.000000, 359.000000) scale(1 1)" blush:width="270" blush:height="270" blush:component="Small Elements" blush:i="0.0"><g id="Small Elements/Rings" stroke="none" stroke-width="1" fill="none" fill-rule="evenodd" blush:i="0.0.0"><path d="M135,0 C209.558441,0 270,60.4415588 270,135 C270,209.558441 209.558441,270 135,270 C60.4415588,270 0,209.558441 0,135 C0,60.4415588 60.4415588,0 135,0 Z M135,19 C70.934969,19 19,70.934969 19,135 C19,199.065031 70.934969,251 135,251 C199.065031,251 251,199.065031 251,135 C251,70.934969 199.065031,19 135,19 Z" id="Combined-Shape" fill="#FFB23C" blush:i="0.0.0.0"/><path d="M135,49 C182.496488,49 221,87.5035115 221,135 C221,182.496488 182.496488,221 135,221 C87.5035115,221 49,182.496488 49,135 C49,87.5035115 87.5035115,49 135,49 Z M135,61 C94.1309285,61 61,94.1309285 61,135 C61,175.869071 94.1309285,209 135,209 C175.869071,209 209,175.869071 209,135 C209,94.1309285 175.869071,61 135,61 Z" id="Combined-Shape" fill="#FFD492" blush:i="0.0.0.1"/><path d="M135,92 C158.748244,92 178,111.251756 178,135 C178,158.748244 158.748244,178 135,178 C111.251756,178 92,158.748244 92,135 C92,111.251756 111.251756,92 135,92 Z M135,98 C114.565464,98 98,114.565464 98,135 C98,155.434536 114.565464,172 135,172 C155.434536,172 172,155.434536 172,135 C172,114.565464 155.434536,98 135,98 Z" id="Combined-Shape" fill="#FFE7C3" blush:i="0.0.0.2"/></g></g><g id="Bottoms" transform="translate(1.000000, 717.000000) scale(0.9689655172413794 0.9679802955665024)" blush:width="843" blush:height="393" blush:component="Bottoms" blush:i="0.1"><defs blush:i="0.1.0"><rect id="bottomscircles-path-1" x="0" y="0" width="870" height="406" blush:i="0.1.0.0"/></defs><g id="Bottoms/Circles" stroke="none" stroke-width="1" fill="none" fill-rule="evenodd" blush:i="0.1.1"><mask id="bottomscircles-mask-2" fill="#fff" blush:i="0.1.1.0"><use xlink:href="#bottomscircles-path-1" blush:i="0.1.1.0.0"/></mask><g id="Mask" blush:i="0.1.1.1"/><path d="M336,35 L642,407 L534.242,407 L336,166 L137.758,407 L30,407 L336,35 Z" id="Combined-Shape" fill="#BE6FFB" mask="url(#bottomscircles-mask-2)" blush:i="0.1.1.2"/><circle id="Oval" fill="#902EE9" mask="url(#bottomscircles-mask-2)" cx="605" cy="391" r="217" blush:i="0.1.1.3"/><circle id="Oval" fill="#BE6FFB" mask="url(#bottomscircles-mask-2)" cx="336" cy="406" r="108" blush:i="0.1.1.4"/></g></g><g id="Plants/Big Plant" transform="translate(1513.000000, 165.000000) scale(1.459051724137931 1.4583333333333333)" blush:width="677" blush:height="945" blush:component="Plants/Big Plant" blush:i="0.2"><g id="Plants/Big Plant/Big Plant 1" stroke="none" stroke-width="1" fill="none" fill-rule="evenodd" blush:i="0.2.0"><g id="Group" transform="translate(46.000000, 70.000000)" blush:i="0.2.0.0"><path d="M207.727381,304.6152 C207.727381,304.6152 201.167381,281.8972 206.613381,267.2852 C212.059381,252.6712 218.401381,244.0572 231.889381,228.6952 C245.377381,213.3332 243.877381,203.9692 258.489381,186.7352 C273.101381,169.4992 298.203381,165.7532 316.561381,156.7612 C334.919381,147.7692 335.667381,138.0292 347.281381,131.8112 C358.895381,125.5912 374.631381,131.8112 374.631381,131.8112 C374.631381,131.8112 355.899381,137.2792 337.167381,155.6372 C318.435381,173.9952 323.515381,186.5032 308.529381,210.0552 L298.895381,220.2812 L207.727381,304.6152 Z" id="Fill-70" fill="#000" blush:i="0.2.0.0.0"/><path d="M181.298781,334.998 C181.298781,334.998 192.728781,295.732 194.298781,276.25 C195.868781,256.768 196.260781,182.956 178.202781,143.302 C160.140781,103.648 143.258781,91.482 135.014781,81.666 C126.768781,71.848 125.984781,61.246 113.028781,50.646 C100.072781,40.046 78.1187807,39.83 69.8407807,32.586 C60.4187807,24.342 23.9047807,3.534 5.45278072,-2.84217094e-14 C5.45278072,-2.84217094e-14 24.6907807,25.912 31.7567807,53.788 C38.8247807,81.662 29.4027807,95.796 35.2907807,109.932 C41.1807807,124.064 53.3507807,137.022 61.5967807,153.51 C69.8407807,170 76.9087807,213.58 83.5827807,224.182 C130.982781,255.596 164.020781,301.33 183.942781,360.79 L181.298781,334.998 Z" id="Fill-71" fill="#870CF7" blush:i="0.2.0.0.1"/><path d="M175.561381,460.2596 C175.435381,459.5296 162.495381,387.1896 117.457381,383.9316 C93.7873807,382.1696 87.2593807,419.4376 87.1953807,419.8156 L84.3733807,419.3396 C84.4413807,418.9356 86.1033807,409.2916 90.9353807,399.7116 C97.4833807,386.7276 106.725381,380.2976 117.665381,381.0756 C137.303381,382.4976 154.041381,396.6196 166.071381,421.9136 C175.067381,440.8276 178.351381,459.5876 178.381381,459.7756 L175.561381,460.2596 Z" id="Fill-72" fill="#000" blush:i="0.2.0.0.2"/><path d="M184.468581,459.9628 C185.914581,422.2988 185.058581,384.5348 181.242581,347.0488 C177.424581,309.5748 170.516581,272.3708 159.754581,236.2588 C149.012581,200.1568 134.368581,165.1728 115.652581,132.4508 C114.584581,130.3468 113.280581,128.3808 112.052581,126.3728 L108.332581,120.3648 L100.892581,108.3448 C95.6365807,100.5288 90.1405807,92.8668 84.7745807,85.1148 L67.2645807,62.8988 L48.5445807,41.6688 C54.9385807,48.6028 61.4025807,55.4908 67.7525807,62.4828 L85.5805807,84.5088 C91.0565807,92.2048 96.6665807,99.8168 102.038581,107.5888 L109.564581,119.6028 L113.326581,125.6128 C114.568581,127.6228 115.884581,129.5888 116.966581,131.6928 C135.900581,164.4328 150.768581,199.4768 161.724581,235.6668 C172.702581,271.8648 179.814581,309.1808 183.824581,346.7788 C187.840581,384.3928 188.684581,422.2948 187.328581,460.0728 L184.468581,459.9628 Z" id="Fill-73" fill="#000" blush:i="0.2.0.0.3"/><path d="M1.50378072,490.0682 C1.50378072,490.0682 0.80978072,475.3122 9.31578072,466.2862 C17.8217807,457.2602 33.0977807,457.9522 38.6517807,453.4422 C44.2077807,448.9282 46.6377807,441.6362 52.5397807,438.6862 C58.4417807,435.7342 65.7337807,441.6362 78.2317807,435.3862 C90.7297807,429.1362 92.9877807,386.6082 95.7637807,380.8782 C98.5417807,375.1502 119.893781,357.6162 119.893781,357.6162 C119.893781,357.6162 113.123781,361.0122 104.617781,360.7902 C96.1117807,360.5682 76.4957807,346.1602 71.2877807,347.0262 C66.0797807,347.8962 51.1457807,359.8722 48.5457807,363.8662 C45.9437807,367.8602 43.6857807,378.6202 32.0557807,389.2102 C20.4257807,399.8002 13.6557807,405.8762 11.2237807,412.2982 C8.79578072,418.7222 3.41378072,426.0142 3.93378072,431.0462 C4.45578072,436.0822 4.67178072,452.9882 3.67778072,456.5342 C2.68578072,460.0822 -2.51621928,481.0402 1.50378072,490.0682" id="Fill-74" fill="#BE6FFB" blush:i="0.2.0.0.4"/><path d="M87.7673807,419.578 C87.7673807,419.578 88.3813807,417.162 89.5673807,412.854 C92.5193807,402.118 100.055381,382.928 118.055381,384.23 C137.369381,385.626 150.375381,397.402 159.565381,412.754 C159.565381,412.754 153.303381,400.194 154.305381,393.43 C155.307381,386.664 162.697381,378.774 161.445381,371.758 C160.193381,364.742 149.795381,364.368 142.905381,360.86 C136.015381,357.352 132.759381,351.84 125.117381,351.84 C117.475381,351.84 100.939381,373.386 95.9293807,378.022 C90.9193807,382.656 87.7673807,419.578 87.7673807,419.578" id="Fill-75" fill="#870CF7" blush:i="0.2.0.0.5"/><path d="M186.898381,460.0604 L184.900381,459.9744 C189.132381,362.0744 229.004381,279.8824 306.796381,208.7024 L308.146381,210.1804 C230.766381,280.9824 191.106381,362.7184 186.898381,460.0604" id="Fill-76" fill="#000" blush:i="0.2.0.0.6"/><path d="M302.534981,216.4178 C279.742981,234.2718 232.224981,247.9638 218.400981,270.2818 C200.552981,299.0978 206.570981,336.9798 208.966981,348.4158 C227.102981,302.1478 258.716981,259.4658 298.894981,220.2818 C300.244981,218.9638 301.328981,217.7978 302.534981,216.4178" id="Fill-77" fill="#BE6FFB" blush:i="0.2.0.0.7"/><path d="M217.803581,576.494 L153.533581,576.494 C141.297581,576.494 131.377581,566.574 131.377581,554.338 L131.377581,460.018 L239.959581,460.018 L239.959581,554.338 C239.959581,566.574 230.039581,576.494 217.803581,576.494" id="Fill-78" fill="#CCA4FF" blush:i="0.2.0.0.8"/></g></g></g><g id="Chair" transform="translate(1534.500000, 768.500000) scale(-1, 1) translate(-1534.500000, -768.500000) translate(1248.000000, 430.000000) scale(1.0893536121673004 1.0884244372990353)" blush:width="573" blush:height="677" blush:component="Chair" blush:i="0.3"><g id="Chair/Office" stroke="none" stroke-width="1" fill="none" fill-rule="evenodd" blush:i="0.3.0"><g id="Group-21" transform="translate(17.000000, 0.000000)" blush:i="0.3.0.0"><path d="M180.3992,324 L114.1092,324 C97.4142,324 83.7542,310.34 83.7542,293.645 L83.7542,227.355" id="Stroke-1" stroke="#0A1B45" stroke-width="39" blush:i="0.3.0.0.0"/><path d="M120.6111,258 L96.1921,258 C43.2861,258 0.0001,214.713 0.0001,161.808 L0.0001,96.192 C0.0001,43.287 43.2861,0 96.1921,0 L120.6111,0 C153.6901,0 180.7541,27.064 180.7541,60.143 L180.7541,197.857 C180.7541,230.936 153.6901,258 120.6111,258" id="Fill-3" fill="#5A328E" blush:i="0.3.0.0.1"/><path d="M253.7542,571 L243.7542,571 C239.3542,571 235.7542,566.352 235.7542,560.67 L235.7542,346.33 C235.7542,340.648 239.3542,336 243.7542,336 L253.7542,336 C258.1542,336 261.7542,340.648 261.7542,346.33 L261.7542,560.67 C261.7542,566.352 258.1542,571 253.7542,571" id="Fill-5" fill="#55B0EB" blush:i="0.3.0.0.2"/><path d="M261.7542,586 L248.7542,586 L235.7542,586 C235.7542,586 145.7542,600.6 145.7542,594 L145.7542,591 C145.7542,584.4 151.1542,579 157.7542,579 L235.7542,559 L248.7542,559 L261.7542,559 L339.7542,579 C346.3542,579 351.7542,584.4 351.7542,591 L351.7542,594 C351.7542,600.6 261.7542,586 261.7542,586" id="Fill-7" fill="#0A1B45" blush:i="0.3.0.0.3"/><path d="M256.8313,475 L240.6773,475 C233.5693,475 227.7543,472.25 227.7543,468.89 L227.7543,342.11 C227.7543,338.75 233.5693,336 240.6773,336 L256.8313,336 C263.9383,336 269.7543,338.75 269.7543,342.11 L269.7543,468.89 C269.7543,472.25 263.9383,475 256.8313,475" id="Fill-9" fill="#55B0EB" blush:i="0.3.0.0.4"/><path d="M344.011,356 L153.497,356 C138.239,356 125.754,343.516 125.754,328.257 L125.754,313.743 C125.754,298.484 138.239,286 153.497,286 L344.011,286 C359.27,286 371.754,298.484 371.754,313.743 L371.754,328.257 C371.754,343.516 359.27,356 344.011,356" id="Fill-11" fill="#5A328E" blush:i="0.3.0.0.5"/><path d="M161.7542,608 C161.7542,615.732 155.4862,622 147.7542,622 C140.0222,622 133.7542,615.732 133.7542,608 C133.7542,600.268 140.0222,594 147.7542,594 C155.4862,594 161.7542,600.268 161.7542,608" id="Fill-13" fill="#0A1B45" blush:i="0.3.0.0.6"/><path d="M365.7542,608 C365.7542,615.732 359.4862,622 351.7542,622 C344.0222,622 337.7542,615.732 337.7542,608 C337.7542,600.268 344.0222,594 351.7542,594 C359.4862,594 365.7542,600.268 365.7542,608" id="Fill-15" fill="#0A1B45" blush:i="0.3.0.0.7"/><path d="M263.7542,608 C263.7542,615.732 257.4862,622 249.7542,622 C242.0222,622 235.7542,615.732 235.7542,608 C235.7542,600.268 242.0222,594 249.7542,594 C257.4862,594 263.7542,600.268 263.7542,608" id="Fill-17" fill="#0A1B45" blush:i="0.3.0.0.8"/><path d="M253.7542,596 L245.7542,596 L235.7542,571 C235.7542,564.4 241.1542,559 247.7542,559 L251.7542,559 C258.3542,559 263.7542,564.4 263.7542,571 L253.7542,596 Z" id="Fill-19" fill="#0A1B45" blush:i="0.3.0.0.9"/></g></g></g><g id="Chair" transform="translate(431.000000, 430.000000) scale(1.0893536121673004 1.0884244372990353)" blush:width="573" blush:height="677" blush:component="Chair" blush:i="0.4"><g id="Chair/Stool" stroke="none" stroke-width="1" fill="none" fill-rule="evenodd" blush:i="0.4.0"><g id="Group-13" transform="translate(143.000000, 286.000000)" blush:i="0.4.0.0"><path d="M27,336 L12,336 C5.4,336 0,330.343 0,323.429 L60,62.571 C60,55.657 65.4,50 72,50 L87,50 C93.6,50 99,55.657 99,62.571 L39,323.429 C39,330.343 33.6,336 27,336" id="Fill-1" fill="#DBAE84" blush:i="0.4.0.0.0"/><path d="M130.5,336 L115.5,336 C108.9,336 103.5,330.343 103.5,323.429 L103.5,62.571 C103.5,55.657 108.9,50 115.5,50 L130.5,50 C137.1,50 142.5,55.657 142.5,62.571 L142.5,323.429 C142.5,330.343 137.1,336 130.5,336" id="Fill-3" fill="#C99F79" blush:i="0.4.0.0.1"/><path d="M234,336 L219,336 C212.4,336 207,330.343 207,323.429 L147,62.571 C147,55.657 152.4,50 159,50 L174,50 C180.6,50 186,55.657 186,62.571 L246,323.429 C246,330.343 240.6,336 234,336" id="Fill-5" fill="#DBAE84" blush:i="0.4.0.0.2"/><g id="Group-9" fill="#55B0EB" blush:i="0.4.0.0.3"><path d="M218.2568,70 L27.7428,70 C12.4848,70 -0.0002,57.516 -0.0002,42.257 L-0.0002,27.743 C-0.0002,12.484 12.4848,0 27.7428,0 L218.2568,0 C233.5158,0 245.9998,12.484 245.9998,27.743 L245.9998,42.257 C245.9998,57.516 233.5158,70 218.2568,70" id="Fill-7" blush:i="0.4.0.0.3.0"/></g><g id="Group-12" transform="translate(0.000000, 188.000000)" fill="#55B0EB" blush:i="0.4.0.0.4"><path d="M230.9443,31 L15.0553,31 C6.7753,31 0.0003,24.225 0.0003,15.944 C0.0003,7.664 6.7753,0.889 15.0553,0.889 L230.9443,0.889 C239.2253,0.889 246.0003,7.664 246.0003,15.944 C246.0003,24.225 239.2253,31 230.9443,31" id="Fill-10" blush:i="0.4.0.0.4.0"/></g></g></g></g><g transform="translate(314.000000, 359.000000) scale(1.0874172185430464 1.0861466821885915)" blush:width="821" blush:height="933" id="Master/Character/Sitting" blush:component="Master/Character/Sitting" blush:i="0.5"><g id="Master/Character/Sitting" stroke="none" stroke-width="1" fill="none" fill-rule="evenodd" blush:has-customizable-skin="true" blush:i="0.5.0"><g id="Legs Sitting" transform="translate(243.000000, 266.000000) scale(1 1)" blush:width="525" blush:height="423" blush:component="Legs Sitting" blush:i="0.5.0.0"><g id="Legs Sitting/ Jeans Cool" stroke="none" stroke-width="1" fill="none" fill-rule="evenodd" blush:i="0.5.0.0.0"><g id="Group-20" transform="translate(0.000000, -1.000000)" blush:i="0.5.0.0.0.0"><path d="M547.936233,294.549565 C547.936233,294.549565 489.462371,314.65151 489.462371,314.65251 C486.317057,315.731453 483.069329,314.221533 482.133762,311.180692 C461.817933,248.139002 434.310971,185.14831 391.621804,136.455866 C385.15126,126.845371 370.756076,121.520651 370.104685,109.454284 C368.220634,99.2448203 392.342394,68.9914088 396.177849,60.4138591 C412.12124,39.0369816 431.877943,69.5483795 444.023707,80.9147827 C494.898624,138.498759 527.740348,211.42093 551.660048,286.034013 C552.765382,289.623824 551.084314,293.473622 547.936233,294.549565" id="Fill-1" fill="#543629" blush:i="0.5.0.0.0.0.0" blush:color="skin-600"/><g id="Group-5" transform="translate(108.000000, 0.000000)" fill="#3E36B9" blush:i="0.5.0.0.0.0.1"><path d="M31.7194432,1.193 C31.7194432,1.193 1.28902735,52.4514 1.28902735,52.4514 C-0.0928954071,54.8254 2.43710042,58.6074 4.52425491,60.5354 C34.5306683,81.5304 70.2479856,85.1114 103.41137,87.6064 C237.57204,84.0614 301.57228,143.9484 349.675345,276.5054 L440.828848,235.2174 C363.841664,30.0814 278.414624,8.0306 83.7099019,0.7346 C78.7468873,0.359266667 61.4167344,0.512066667 31.7194432,1.193 Z" id="Fill-3" blush:i="0.5.0.0.0.0.1.0"/></g><path d="M543.719008,262 C538.971183,263.946282 521.850883,270.963482 505.889085,277.506345 C512.070234,291.516778 482.20733,303.109588 478.295996,288.816549 C476.206619,289.673353 475,290.168661 475,290.168661 C478.464404,300.032885 481.730789,309.956027 484.588182,320 L587,287.723076 C586.500326,285.950552 585.495427,282.387528 584.967994,280.640967 C584.229587,260.971436 552.132032,274.073139 543.719008,262" id="Fill-6" fill="#D7DBE2" blush:i="0.5.0.0.0.0.2"/><path d="M549,234.867124 L457.556457,276 C453.908262,266.570899 450.061024,257.239241 446,248.088548 L535.389533,202 C540.204339,212.851968 544.721503,223.809333 549,234.867124" id="Fill-8" fill="#D7DBE2" blush:i="0.5.0.0.0.0.3"/><path d="M338.705188,418.945002 C338.705188,418.945002 277.692362,419 277.692362,419 C274.409873,419 271.747725,416.192153 271.73396,412.695346 C270.817212,334.333654 269.869264,255.300999 259.217921,177.98425 C256.225413,164.063015 253.717434,151.459708 269.622412,146.982954 C278.769702,145.439039 311.794647,126.643073 320.396844,135.2426 C338.707941,140.964285 354.07425,415.995164 338.705188,418.945002" id="Fill-10" fill="#694d3d" blush:i="0.5.0.0.0.0.4" blush:color="skin-500"/><path d="M87.3558913,1 L20,55.6093315 C30.7251731,83.2038373 50.8383116,100.063082 85.3542635,100.063082 C210.140546,100.063082 249.585834,156.502363 254.672668,247.068018 C256.935661,287.358201 257.79959,328.052317 259.049583,368 L358,365.829618 C348.492456,99.3048991 364.06942,60.5333099 107.250418,1.45869209 C107.250418,1.15289736 100.618909,1 87.3558913,1 Z" id="Fill-12" fill="#694FD9" blush:i="0.5.0.0.0.0.5"/><path d="M344.885323,388 C339.849763,388.071405 321.692202,388.327273 304.761418,388.566281 C306.058845,404.27438 274.599443,404.583802 275.495897,388.978843 C273.279076,389.009587 272,389.02843 272,389.02843 C272.105519,397.62876 272.210121,414.93157 272.206451,423.52595 L378,424 L377.987154,412.055537 C377.939441,402.666777 349.044614,400.59405 344.885323,388" id="Fill-14" fill="#D7DBE2" blush:i="0.5.0.0.0.0.6"/><path d="M358,365.809343 L258.797401,368 C258.588822,356.807571 258.327636,345.621196 258,334.459038 L357.173988,331 C357.514545,342.612196 357.785883,354.212283 358,365.809343" id="Fill-16" fill="#D7DBE2" blush:i="0.5.0.0.0.0.7"/><path d="M192,1 C192,55.5336616 151.085538,99.7422727 100.615385,99.7422727 L95.066,99.742 L94.9773757,100 L56,100 C25.072054,100 -4.00068739e-11,74.927946 -4.00177669e-11,44 L-4.00177669e-11,1.25772731 C0.00010146181,1.1717287 -4.00177669e-11,1.08587715 -4.00177669e-11,1 L192,1 Z" id="PELVIS-PLUS" fill="#694FD9" blush:i="0.5.0.0.0.0.8"/></g></g></g><g id="Body" transform="translate(-33.000000, -31.000000) scale(1 1)" blush:width="863" blush:height="528" blush:component="Body" blush:i="0.5.0.1"><g id="Body/Bomber Jacket Grab Up" stroke="none" stroke-width="1" fill="none" fill-rule="evenodd" blush:i="0.5.0.1.0"><g id="Group-42" transform="translate(200.000000, 40.000000)" blush:i="0.5.0.1.0.0"><path d="M561.059,18.5175 C568.577,17.2505 574.489,17.9875 579.182,19.7995 C583.87,21.6015 587.293,24.4135 589.671,27.0285 C594.437,32.2385 588.286,41.3055 580.731,39.1175 C573.169,36.8845 565.387,28.8265 547.608,34.4445 C543.174,35.8665 540.841,35.6795 540.108,34.6405 C539.374,33.6005 540.249,31.7275 542.095,29.5335 C545.809,25.1725 553.567,19.8195 561.059,18.5175" id="SKIN-DARKER" fill="#543629" blush:i="0.5.0.1.0.0.0" blush:color="skin-600"/><path d="M537.4682,40.8603 L537.4682,40.8603 C532.6142,33.1493 525.1032,28.1023 516.9842,26.1163 C512.9222,25.1243 508.7042,24.9003 504.5632,25.5083 C500.4232,26.1223 496.2912,27.3963 492.4892,29.6603 C484.9522,34.0723 477.4642,38.6143 469.8182,42.7233 C439.6952,59.5613 408.9162,74.6583 377.4982,86.7493 C369.6832,89.9633 361.7342,92.4793 353.8322,95.2233 C349.8912,96.6663 345.8932,97.7433 341.9122,98.9223 L329.9642,102.4143 L317.9472,105.3243 L311.9432,106.7913 C309.9342,107.2083 307.9202,107.5603 305.9092,107.9513 L293.8462,110.2593 C289.8162,110.8743 285.7792,111.3723 281.7472,111.9443 C279.8872,112.2023 278.1002,112.6823 276.3922,113.3643 C275.5382,113.7253 274.7012,114.0643 273.8862,114.4463 C273.0712,114.8353 272.2762,115.2713 271.5022,115.7533 C268.4102,117.6803 265.6602,120.3343 263.3572,123.5223 C261.0552,126.6943 259.2022,130.4733 257.9592,134.4613 C256.7172,138.4423 256.0892,142.8013 256.3002,147.3523 C256.5112,151.9043 257.5522,156.2163 259.3272,160.1143 C261.1002,164.0063 263.5942,167.3133 266.6732,170.0733 C269.7482,172.8173 273.4032,174.9393 277.4222,176.2773 C278.4272,176.6123 279.4542,176.8973 280.5002,177.1313 C281.5472,177.3713 282.6132,177.5543 283.6782,177.6123 C285.8172,177.7663 288.0132,177.7003 290.2322,177.3973 C295.0362,176.7243 299.8592,176.1103 304.6472,175.3703 L318.8842,172.6633 C321.2532,172.2003 323.6342,171.7713 325.9922,171.2783 L332.9962,169.5853 L346.9982,166.1773 C351.5992,164.8813 356.1682,163.5113 360.7532,162.1753 C365.3292,160.8203 369.9472,159.5483 374.3992,157.9373 C383.3642,154.8453 392.4292,151.9273 401.1392,148.3703 C436.3652,134.8073 469.8222,118.3233 502.0042,100.3423 C510.2112,95.9193 518.1232,91.1323 526.1182,86.4483 C530.1472,84.0513 533.5722,81.0483 536.1332,77.4853 C538.6982,73.9263 540.5212,69.9503 541.5312,65.8073 C543.5592,57.5173 542.3222,48.5723 537.4682,40.8603" id="Fill-3" fill="#543629" blush:i="0.5.0.1.0.0.1" blush:color="skin-600"/><path d="M523.4575,88.0146 C518.5615,90.8956 511.4055,80.1736 504.9765,66.9196 C498.5495,53.6626 492.7575,37.9266 490.8145,30.6446 L496.0615,27.5576 C498.0155,26.4046 499.9425,25.3186 501.8285,24.2526 C503.7005,23.1536 505.5435,22.1046 507.3565,21.1036 C510.9825,19.1006 514.4915,17.2896 517.8865,15.6526 C521.2795,14.0136 524.5625,12.5576 527.7255,11.2416 C530.8615,9.8666 533.8875,8.6516 536.8035,7.5806 C548.4585,3.2906 558.4085,1.3686 566.5085,0.4536 C582.7785,-1.2374 592.2455,2.3036 595.0325,2.8266 C600.6205,3.8656 603.2685,12.9486 597.6945,15.5286 C595.0555,16.7286 581.9385,19.3866 569.7715,24.2196 C557.4885,28.9116 546.2675,36.0006 547.0705,46.6666 C548.0085,59.5516 558.9505,59.2676 567.0775,58.2646 C576.8245,57.1406 580.9945,71.1746 572.9325,74.3236 C569.5735,75.6646 565.4605,76.7316 561.0605,77.7226 C556.6635,78.7196 551.9805,79.6426 547.3825,80.6216 C545.0835,81.1116 542.8055,81.6156 540.5945,82.1496 C538.3895,82.6926 536.2365,83.2506 534.1575,83.8136 C530.0245,84.9676 526.3405,86.3186 523.4575,88.0146" id="SKIN-DARKER" fill="#543629" blush:i="0.5.0.1.0.0.2" blush:color="skin-600"/><path d="M532.0932,86.4111 L493.5902,22.0491 L480.9722,29.4731 L474.6642,33.1861 L468.2922,36.7081 C467.7202,36.5981 467.0812,36.5371 466.3602,36.5331 C463.1752,36.3221 458.6422,37.1411 453.0672,38.8061 C451.6722,39.2201 450.2142,39.6941 448.6932,40.2041 C447.1602,40.6751 445.5672,41.1921 443.9172,41.7551 C440.6172,42.8811 437.0942,44.1861 433.3812,45.6501 C425.9842,48.7101 417.7092,51.8311 409.0032,55.5661 C407.9162,56.0341 406.8202,56.5051 405.7152,56.9791 C404.6142,57.4671 403.5022,57.9441 402.3742,58.3721 C400.1322,59.2741 397.8592,60.1881 395.5582,61.1141 C393.2692,62.0631 390.9542,63.0231 388.6172,63.9931 C387.4532,64.4861 386.2832,64.9821 385.1102,65.4801 L383.3472,66.2351 L381.5692,66.9171 C362.6142,74.5751 342.7212,81.9501 324.1762,88.1861 C319.5322,89.6151 314.9792,91.0711 310.5492,92.5411 C308.3372,93.3371 306.1442,93.8381 303.9912,94.4801 C301.8382,95.1081 299.7212,95.7251 297.6442,96.3311 C295.5662,96.9661 293.5292,97.5881 291.5362,98.1961 C289.5402,98.7201 287.5892,99.2301 285.6892,99.7281 C281.8862,100.7451 278.2812,101.7721 274.9112,102.8001 C270.0952,103.2751 236.486894,111.57336 234.036617,115.800871 C220.0385,139.9521 244.6012,171.8351 252.7512,179.5731 C256.8082,183.4311 261.7372,186.6101 267.1702,188.2981 C272.6082,190.0681 278.6192,190.8721 284.7552,190.2471 C308.2792,190.3951 333.8722,186.7461 358.4322,180.3711 C361.4842,179.5271 364.5362,178.6831 367.5852,177.8411 L372.1472,176.5391 C373.6692,176.1071 375.1852,175.6671 376.6522,175.1441 C382.5712,173.1421 388.4422,171.0881 394.2292,168.9981 C395.6682,168.4661 397.1322,167.9741 398.5372,167.4021 C399.9392,166.8231 401.3352,166.2461 402.7282,165.6711 C405.5042,164.5011 408.2612,163.3391 410.9972,162.1861 C413.7192,161.0091 416.4192,159.8411 419.0932,158.6841 L421.0852,157.8051 L423.0212,156.8641 C424.3052,156.2351 425.5822,155.6101 426.8532,154.9871 C431.9272,152.4871 436.8582,149.9981 441.6152,147.5421 C444.0192,146.3441 446.2752,145.0221 448.5142,143.7491 C450.7402,142.4611 452.9302,141.1941 455.0782,139.9521 C459.3572,137.4441 463.4452,135.0031 467.2962,132.6221 C471.0652,130.1421 474.6152,127.7441 477.9192,125.4481 C491.2412,116.3841 500.1422,108.3871 503.8332,103.6171 C504.3112,103.0661 504.6782,102.5761 504.9802,102.1221 L511.8582,98.3131 L518.6052,94.3481 L532.0932,86.4111 Z" id="Fill-8" fill="#CC2935" blush:i="0.5.0.1.0.0.3"/><polygon id="Fill-10" fill="#B52935" points="468.5717 36.5556 506.0157 103.2656 512.8257 99.4896 519.5067 95.5616 532.8647 87.7006 493.5917 22.0496 481.1117 29.3936 474.8727 33.0676" blush:i="0.5.0.1.0.0.4"/><path d="M288.52,258.3037 L74.039,258.3037 L74.039,151.2417 C74.039,127.7737 93.064,108.7477 116.533,108.7477 L246.026,108.7477 C269.495,108.7477 288.52,127.7737 288.52,151.2417 L288.52,258.3037 Z" id="Fill-12" fill="#D7DBE2" blush:i="0.5.0.1.0.0.5"/><path d="M220.0385,108.748 C220.0385,125.304 212.0385,146.304 185.5385,146.304 C154.0385,146.304 141.0385,128.385 141.0385,108.748 L220.0385,108.748 Z" id="SKIN" fill="#694d3d" blush:i="0.5.0.1.0.0.6" blush:color="skin-500"/><path d="M227.1733,320.7138 C253.0383,321.3038 275.0383,319.3038 298.4843,311.4598 C300.6483,310.7348 302.4883,309.3568 302.2893,307.0818 L299.1333,270.9948 C275.0523,272.0418 249.9043,276.7188 223.4353,280.8678 C222.9373,293.7878 222.4293,305.7138 221.9623,316.0608 C221.8343,318.9108 224.3203,320.6488 227.1733,320.7138" id="Fill-16" fill="#CC2935" blush:i="0.5.0.1.0.0.7"/><path d="M61.5903,272.1464 L58.7283,304.8694 C58.3913,308.7154 60.7213,312.3214 64.3893,313.5264 C88.9763,321.6044 124.1903,325.7504 147.3063,327.3704 C150.9673,327.6264 154.1883,325.0244 154.7403,321.3954 C156.3073,311.1084 157.4373,299.6834 158.2123,287.5324 C133.5053,286.5704 88.6813,282.2614 61.5903,272.1464" id="Fill-18" fill="#CC2935" blush:i="0.5.0.1.0.0.8"/><path d="M102.4018,110.5507 C84.9098,115.8137 72.1658,132.0357 72.1658,151.2417 L61.5898,272.1467 C88.6808,282.2617 133.5058,286.5707 158.2128,287.5317 C161.2648,239.6267 165.0388,143.3037 136.0388,128.3037 C136.0388,128.3037 115.0388,106.3037 102.4018,110.5507" id="Fill-20" fill="#FA3239" blush:i="0.5.0.1.0.0.9"/><path d="M223.435,280.8681 C251.039,282.3041 274.039,280.3041 299.133,270.9951 L288.659,151.2421 C288.659,129.8471 272.845,112.1531 252.27,109.1911 C249.603,119.5561 239.934,122.8071 226.039,129.3041 C226.692,173.7051 225.16,236.1811 223.435,280.8681" id="Fill-22" fill="#FA3239" blush:i="0.5.0.1.0.0.10"/><path d="M130.0385,68.3037 C89.0385,73.3037 85.1415,108.0677 102.4015,111.5507 C116.0385,114.3037 124.7825,130.3117 136.7425,136.4607 C139.4105,137.8327 142.5525,135.7317 142.3435,132.7387 C142.2845,131.8907 142.2255,131.0477 142.1665,130.2117 C141.5095,120.9407 142.8955,109.0827 152.1895,109.1537 C168.8525,109.2777 193.8035,109.2587 209.8345,109.1177 C218.5305,109.0407 225.6935,116.9457 225.9045,125.6397 C225.9395,127.0667 225.9725,128.5107 226.0015,129.9687 C226.0595,132.9077 229.2465,134.7137 231.7975,133.2527 C242.6065,127.0617 249.9835,119.0747 252.2695,110.1917 C252.7655,108.2667 253.0385,106.3027 253.0385,104.3037 C253.0385,81.1077 171.7065,63.2227 130.0385,68.3037" id="Fill-24" fill="#CC2935" blush:i="0.5.0.1.0.0.11"/><path d="M216.3159,366.9931 L216.3159,366.9931 C217.5639,376.0011 214.9169,384.7831 208.8419,391.3321 C202.8309,397.8621 193.3579,402.1881 182.6379,401.9271 C161.1739,401.4311 139.2219,397.7971 118.1049,389.9871 C95.1659,381.5961 73.2559,367.8471 55.7669,349.0571 C53.6249,346.6711 51.4549,344.3131 49.4629,341.7841 C47.3979,339.3221 45.5039,336.7141 43.6039,334.1131 C39.9239,328.8251 36.4399,323.3721 33.4899,317.6221 L32.3559,315.4821 L31.3069,313.3001 L29.2479,308.9181 C28.0189,305.9381 26.6939,302.9891 25.6519,299.9411 C23.3779,293.9061 21.6719,287.7001 20.2179,281.4681 C17.4769,268.9731 16.2309,256.2471 16.5979,243.7631 C16.9169,231.2721 18.5849,218.9891 21.4709,207.2311 C27.1929,183.6581 37.1599,162.0841 49.3269,142.7511 C54.9829,133.8101 63.5899,128.2471 72.3339,126.7491 C74.5009,126.3441 76.7019,126.2071 78.8869,126.3171 C81.0649,126.4201 83.2109,126.7541 85.2949,127.3181 C89.4659,128.4461 93.3919,130.4981 96.8899,133.4181 C100.3879,136.3371 103.1379,139.8371 105.1819,143.5821 C106.2039,145.4561 107.0479,147.3911 107.7149,149.3521 C108.3739,151.3091 108.8729,153.3041 109.2369,155.3161 C110.5619,163.3271 109.3889,171.2751 105.1979,177.8851 C96.1259,192.2711 89.3249,207.4691 85.6339,222.6961 C81.9279,237.9141 81.5189,253.1071 84.6259,267.0561 C87.7729,280.9871 94.3919,293.6921 104.1229,304.1381 C113.8599,314.5581 126.5269,322.8021 141.0209,328.0951 C154.3149,333.0151 169.0089,335.6021 184.1779,335.9441 C191.6879,336.1301 198.7089,339.3781 204.5869,344.8561 C210.4109,350.3331 215.0639,357.9541 216.3159,366.9931" id="SKIN" fill="#694d3d" blush:i="0.5.0.1.0.0.12" blush:color="skin-500"/><path d="M226.0971,389.7998 C226.4971,392.2528 225.7541,394.6588 224.1811,396.5708 C222.5961,398.4298 220.1721,399.7738 217.3481,400.1478 C197.2281,402.5828 176.4151,402.7308 155.5521,399.5648 C154.0851,399.3388 152.7271,398.8738 151.5391,398.2268 C150.3521,397.5388 149.3341,396.6718 148.5401,395.6908 C146.9501,393.7238 146.2621,391.2958 146.7701,388.8638 C147.2791,386.4308 148.8571,384.4458 150.9301,383.1888 C151.9681,382.5588 153.1331,382.1128 154.3691,381.8838 C155.6091,381.6158 156.9211,381.5638 158.2571,381.7688 C177.2731,384.6558 196.4561,384.5458 215.1621,382.2808 C217.7871,381.9308 220.2961,382.6108 222.2821,383.9858 C224.2491,385.3078 225.6971,387.3468 226.0971,389.7998" id="SKIN" fill="#694d3d" blush:i="0.5.0.1.0.0.13" blush:color="skin-500"/><path d="M225.5717,373.665 L225.5717,373.665 C226.4377,378.532 222.8827,383.327 217.5367,383.981 C211.2417,384.855 204.8707,385.354 198.4877,385.733 C195.7937,385.821 193.3167,384.888 191.5487,383.311 C189.7737,381.731 188.7037,379.438 188.697665,376.966 C188.6907,374.468 189.7207,372.261 191.3317,370.586 C192.9477,368.907 195.1467,367.831 197.6167,367.754 C203.4897,367.401 209.3627,366.947 215.1947,366.135 C220.0737,365.542 224.6957,368.745 225.5717,373.665" id="SKIN" fill="#694d3d" blush:i="0.5.0.1.0.0.14" blush:color="skin-500"/><path d="M224.7778,357.5751 C225.2198,360.0201 224.6498,362.3971 223.3228,364.2711 C221.9988,366.1341 219.9268,367.5521 217.4458,367.8501 L213.0308,368.4421 C211.5588,368.6381 210.0768,368.7521 208.5998,368.9111 C207.1218,369.0471 205.6478,369.2331 204.1658,369.3271 L199.7178,369.6201 C197.2268,369.8211 194.9148,368.8091 193.2588,367.2531 C191.5978,365.6751 190.5898,363.4561 190.5578,360.9711 C190.5258,358.4851 191.4518,356.2051 192.9178,354.5301 C194.3888,352.8331 196.3978,351.8391 198.6758,351.6501 L202.7438,351.3841 C204.0988,351.3001 205.4558,351.1241 206.8118,351.0001 C208.1678,350.8521 209.5248,350.7531 210.8808,350.5711 L214.9458,350.0251 C217.2238,349.7551 219.4278,350.3561 221.2098,351.7201 C222.9858,353.0731 224.3358,355.1301 224.7778,357.5751" id="SKIN" fill="#694d3d" blush:i="0.5.0.1.0.0.15" blush:color="skin-500"/><path d="M212.7231,334.1806 C213.0701,336.6416 212.5211,338.9836 211.3021,340.7916 C210.6941,341.6906 209.9201,342.4776 209.0221,343.0356 C208.1241,343.5806 207.1011,343.9356 206.0011,344.0456 C198.9201,344.7356 191.8441,345.1106 184.8451,344.9506 C180.4581,344.8256 177.2161,340.6256 177.5951,335.6356 C177.9581,330.7116 181.3391,326.8406 185.1721,326.9526 C191.4211,327.0986 197.8021,326.7586 204.2231,326.1336 C205.2211,326.0346 206.1981,326.1916 207.1191,326.5596 C208.0401,326.9146 208.9101,327.4446 209.6811,328.1666 C211.2191,329.6026 212.3751,331.7196 212.7231,334.1806" id="SKIN" fill="#694d3d" blush:i="0.5.0.1.0.0.16" blush:color="skin-500"/><path d="M243.9809,336.7167 L243.9809,336.7167 C245.3669,341.4787 242.8009,346.3697 238.2349,347.5427 C221.7819,351.6047 205.0059,353.9087 188.3739,353.9637 C183.7359,354.0017 180.2169,349.7467 180.4809,344.7977 C180.7479,339.8207 184.2329,336.0027 188.3329,335.9637 C203.3179,335.9137 218.6779,333.8307 233.9119,330.0707 C238.0859,328.9947 242.5929,331.9327 243.9809,336.7167" id="SKIN" fill="#694d3d" blush:i="0.5.0.1.0.0.17" blush:color="skin-500"/><path d="M154.6503,405.4976 C142.3713,403.6166 130.0593,400.7026 118.0073,396.3426 C117.3273,396.4936 116.5483,396.5946 115.6433,396.6366 C114.5603,396.6966 113.3263,396.6936 111.9543,396.5966 C110.5883,396.4706 109.0803,396.2666 107.4383,395.9856 C104.1433,395.4676 100.3563,394.4206 96.0973,393.0716 C87.6133,390.2786 77.3503,385.5866 66.4743,378.3256 C65.1223,377.4016 63.7513,376.4646 62.3593,375.5146 C61.0053,374.4936 59.6333,373.4566 58.2413,372.4076 C57.5503,371.8736 56.8553,371.3366 56.1533,370.7956 C55.4733,370.2256 54.7873,369.6516 54.0973,369.0746 C52.7243,367.9086 51.3243,366.7396 49.9453,365.5036 C44.4553,360.5296 39.0433,354.8726 33.9023,348.5746 C28.7933,342.2466 24.0293,335.2356 19.7753,327.6916 C18.7413,325.7876 17.6503,323.8996 16.6903,321.9306 C15.7383,319.9576 14.7823,317.9756 13.8213,315.9826 C12.9433,313.9556 12.0783,311.9116 11.2243,309.8516 C10.3653,307.7936 9.6503,305.6786 8.8763,303.5736 C5.9133,295.1146 3.6593,286.3166 2.1623,277.4186 C0.6503,268.5176 0.0093,259.5336 0.000298893799,250.6886 C0.000298893799,241.8406 0.6763,233.1186 2.0153,224.7416 C3.3323,216.3606 5.1343,208.2396 7.4753,200.6006 C7.7603,199.6416 8.0443,198.6846 8.3273,197.7296 C8.6423,196.7926 8.9543,195.8596 9.2673,194.9276 C9.9073,193.0756 10.5453,191.2316 11.1783,189.3986 C11.8773,187.6106 12.5713,185.8316 13.2623,184.0646 C13.6123,183.1866 13.9633,182.3096 14.3133,181.4366 C14.6883,180.5826 15.0623,179.7336 15.4353,178.8856 C16.1903,177.1986 16.9393,175.5226 17.6833,173.8596 C18.4823,172.2416 19.2743,170.6356 20.0593,169.0426 C21.6093,165.8396 23.3133,162.8496 24.9553,159.8956 C35.4373865,134.7026 58.2413,104.76111 96.0973,107.7477 C101.5683,109.5747 106.515625,111.9166 110.928625,116.0926 C115.340625,120.2686 117.4733,129.5756 119.9123,134.7026 C122.3523,139.8336 123.8163,145.1876 124.5303,150.5126 C125.1663,155.7976 125.0653,161.0496 124.0383,165.9266 C123.5893,168.3946 122.8133,170.7346 121.9103,173.0126 C121.4633,174.1526 120.9473,175.2626 120.3613,176.3416 C120.0683,176.8816 119.7573,177.4126 119.4293,177.9376 C119.1243,178.4696 118.8023,178.9946 118.4613,179.5096 C114.4043,188.0896 110.5813,196.8786 107.5643,205.6536 C107.1953,206.7456 106.8273,207.8406 106.4573,208.9386 C106.0593,210.0296 105.7953,211.1286 105.4423,212.2176 C104.7163,214.3976 104.2133,216.5756 103.5793,218.7356 C102.5193,223.0576 101.5763,227.3276 100.9083,231.5086 C100.2843,235.6836 99.8573,239.7666 99.6433,243.7336 C99.4593,247.6966 99.5503,251.5226 99.8093,255.2236 C99.9083,256.1376 99.9093,257.0786 100.0463,257.9736 C100.1663,258.8726 100.2693,259.7736 100.3583,260.6746 C100.5183,261.5516 100.6593,262.4306 100.7863,263.3116 C100.9003,264.1976 101.1393,265.0326 101.2853,265.8986 C102.000299,269.3136 102.8853,272.6036 103.9583,275.7606 C105.0723,278.8976 106.3503,281.9096 107.7533,284.8076 C109.1563,287.7066 110.8033,290.4156 112.4593,293.0566 C112.9013,293.6966 113.3333,294.3406 113.7553,294.9896 C114.1633,295.6476 114.6663,296.2296 115.1013,296.8586 C115.9583,298.1286 116.9523,299.2696 117.8503,300.4656 C118.2973,301.0666 118.8173,301.5976 119.2823,302.1696 C119.7693,302.7226 120.1983,303.3206 120.7053,303.8406 C121.7143,304.8836 122.5973,306.0186 123.6123,306.9846 C127.4893,311.0366 131.3523,314.4756 134.6313,317.3986 C136.3033,318.8156 137.7673,320.1936 139.0953,321.3486 C139.7463,321.9456 140.3383,322.5246 140.8683,323.0786 C141.4193,323.5986 141.9053,324.0996 142.3233,324.5776 C142.7003,324.9816 142.9943,325.3576 143.2413,325.7156 C150.4003,328.3286 158.0473,330.1386 165.9213,331.3496 L154.6503,405.4976 Z" id="Fill-38" fill="#FA3239" blush:i="0.5.0.1.0.0.18"/><path d="M118.4028,396.4853 L143.9768,324.3863 C150.9678,326.9243 158.4498,328.6733 166.1468,329.8653 L154.6508,405.4963 C142.5068,403.6273 130.3288,400.7713 118.4028,396.4853" id="Fill-40" fill="#CC2935" blush:i="0.5.0.1.0.0.19"/></g></g></g><g id="Head" transform="translate(288.000000, -61.000000) scale(1 1)" blush:width="127" blush:height="211" blush:component="Head" blush:i="0.5.0.2"><g id="Head/Afro" stroke="none" stroke-width="1" fill="none" fill-rule="evenodd" blush:i="0.5.0.2.0"><path d="M60,44 C14.0627304,44 -9,67.357571 -9,114.051992 C-9,160.746412 14.0627304,172 60,172 C105.93727,172 129,160.746412 129,114.051992 C129,67.357571 105.93727,44 60,44 Z" id="Fill-3" fill="#000" blush:i="0.5.0.2.0.0"/><g id="head" transform="translate(22.000000, 72.000000)" blush:i="0.5.0.2.0.1"><g fill="#694d3d" id="SKIN" blush:i="0.5.0.2.0.1.0" blush:color="skin-500"><path d="M13,62 L58,62 L58,113.633 C58,127.538 47.926,138.81 35.5,138.81 C23.074,138.81 13,127.538 13,113.633 L13,62 Z" blush:i="0.5.0.2.0.1.0.0"/><path d="M60.0525,94 L55.0655,94 C31.8335,94 13.0005,75.167 13.0005,51.935 L13.0005,32.203 C13.0005,14.418 27.4175,0 45.2035,0 L50.7965,0 C68.5825,0 83.0005,14.418 83.0005,32.203 L83.0005,71.052 C83.0005,83.726 72.7265,94 60.0525,94" blush:i="0.5.0.2.0.1.0.1"/><path d="M25,58.5 C25,65.403 19.404,71 12.5,71 C5.596,71 0,65.403 0,58.5 C0,51.597 5.596,46 12.5,46 C19.404,46 25,51.597 25,58.5" blush:i="0.5.0.2.0.1.0.2"/></g><path d="M10.067,53.1685 C10.9718309,53.1685 12.2239875,53.3771928 13.5088204,54.0196092 C15.6553998,55.0928989 17.0130325,57.055328 17.10411,59.9021045 L17.109,60.2105 L14.109,60.2105 C14.109,58.3751144 13.4076866,57.3231443 12.1671796,56.7028908 C11.7065142,56.4725581 11.1976823,56.3199085 10.686339,56.2346846 C10.4347302,56.1927498 10.2385731,56.1747448 10.1250097,56.169908 L10.067,56.1685 L10.067,53.1685 Z" id="ear-line" fill="#000" blush:i="0.5.0.2.0.1.1"/><path d="M34.7507501,96.3316762 C25.4557924,93.0435693 20.8185822,84.7386742 18.9822222,73.5680961 C26.2532122,85.6701724 39.4406226,93.8132264 54.5439426,93.9967331 L55.0655,93.9999 L58,93.9999 C50.0632106,98.2297391 42.3134606,99.0069978 34.7507501,96.3316762 Z" id="SHADOW" fill="#000" opacity=".12" blush:i="0.5.0.2.0.1.2"/></g><path d="M19.0235388,90.2974915 C18.0946008,77.6615932 44.8808128,67 60.3367811,67 L94.3260463,67 L110,94.0239492 L60.0298015,94.0239492 C53.2572536,108.828644 43.3389157,118 34.3395164,118 C25.3401171,118 19.7014935,99.5172542 19.0235388,90.2974915 Z" id="Fill-17" fill="#000" blush:i="0.5.0.2.0.2"/></g></g><g id="Expression" transform="translate(335.000000, 34.000000) scale(1 1)" fill="#000" blush:width="61" blush:height="61" blush:component="Expression" blush:i="0.5.0.3"><g id="Expression/Outraged" stroke="none" stroke-width="1" fill="none" fill-rule="evenodd" blush:i="0.5.0.3.0"><polygon id="Stroke-5" fill="#000" fill-rule="nonzero" points="33.1977829 19.396766 36.1476171 18.850434 40.4350211 41.9996 30.5607 41.9996 30.5607 38.9996 36.828 38.999" blush:i="0.5.0.3.0.0"/><g id="Group-17" transform="translate(10.500000, 10.000000)" blush:i="0.5.0.3.0.1"><path d="M31.5736,38.5 L17.5216,38.5 C12.5796,38.5 8.5736,42.506 8.5736,47.448 L8.5736,48.5 L31.5736,48.5 L31.5736,38.5 Z" id="Fill-1" fill="#FFF" blush:i="0.5.0.3.0.1.0"/><path d="M31.5736,38.5 L17.5216,38.5 C12.5796,38.5 8.5736,42.506 8.5736,47.448 L8.5736,48.5 L31.5736,48.5 L31.5736,38.5 Z" id="Stroke-3" stroke="#000" stroke-width="3" blush:i="0.5.0.3.0.1.1"/><polyline id="Stroke-5" stroke="#000" stroke-width="3" points="24.1856 9.1235 28.1436 30.4995 20.0736 30.4995" blush:i="0.5.0.3.0.1.2"/><path d="M0.5736,1.1172 C4.3926,-0.4628 12.0866,2.9732 13.5736,6.1172" id="Stroke-7" stroke="#000" stroke-width="3" blush:i="0.5.0.3.0.1.3"/><path d="M40.5736,1.1172 C36.2946,-1.0338 29.1266,2.8762 27.5736,6.1172" id="Stroke-9" stroke="#000" stroke-width="3" blush:i="0.5.0.3.0.1.4"/><path d="M3.0736,14 C5.0736,9 14.0736,9 15.0736,14" id="Stroke-13" stroke="#000" stroke-width="3" blush:i="0.5.0.3.0.1.5"/><path d="M28.0736,14 C30.0736,9 39.0736,9 40.0736,14" id="Stroke-15" stroke="#000" stroke-width="3" blush:i="0.5.0.3.0.1.6"/></g></g></g><g id="Accessories" transform="translate(322.000000, 56.000000) scale(1 1)" fill="#000" blush:width="76" blush:height="48" blush:component="Accessories" blush:i="0.5.0.4"><g id="Accessories/None" stroke="none" stroke-width="1" fill="none" fill-rule="evenodd" fill-opacity="0" blush:i="0.5.0.4.0"/></g><g id="Glasses" transform="translate(314.000000, 42.000000) scale(1 1)" fill="#000" blush:width="95" blush:height="32" blush:component="Glasses" blush:i="0.5.0.5"><g id="Glasses/Thick" stroke="none" stroke-width="1" fill="none" fill-rule="evenodd" blush:i="0.5.0.5.0"><path d="M43.5452664,3.00012344 C49.2894512,3.02462661 55.021427,4.35163303 57.0857956,6.97405047 C58.0938547,8.25461237 58.6772219,10.0147386 58.9068842,11.9996703 L62.1143968,11.9996703 C62.3440591,10.0147386 62.9274264,8.25461237 63.9354854,6.97405047 C65.9529365,4.41123343 71.4731799,3.0856142 77.0844275,3.00401411 L77.4760146,3.00012344 L77.8967218,3.00012344 L80.8146938,3.0378718 C91.0822714,3.2070925 94.9796428,3.73089949 95.893837,5.69362755 C96.9046181,7.86372269 97.4724619,10.8486323 96.5699433,12.3975628 L96.4345265,12.6077971 C96.2607766,12.8804731 95.8187885,13.7026763 95.3317143,14.6775352 L95.2267324,14.8886255 L94.7966033,15.7746065 C94.1772527,17.0747485 93.6217104,18.3482986 93.2115536,19.4320065 L93.1438986,19.6872046 L93.1438986,19.6872046 C92.2530855,22.9637972 90.4857872,26.1972123 88.6985341,28.3365739 C85.3492115,32.34575 71.1131799,32.6082999 67.0329763,28.4576053 C64.4038322,25.7830393 62.5077693,20.7417692 62.087653,15.9998009 L58.933628,15.9998009 C58.5135117,20.7417692 56.6174488,25.7830393 53.9883048,28.4576053 C49.9081011,32.6082999 35.6720695,32.34575 32.3227469,28.3365739 C30.5354938,26.1972123 28.7681955,22.9637972 27.8773824,19.6872046 L27.8097274,19.4320065 C27.4233065,18.4110132 26.9078403,17.2215143 26.331547,16.0000268 L0,16 L0,12 L24.2628445,12.0004643 C23.6422666,10.3774347 24.1973223,7.69055104 25.127444,5.69362755 C26.0970439,3.61194627 30.4223758,3.14888604 42.1443686,3.0107703 L43.1245592,3.00012344 L43.5452664,3.00012344 Z M32.8542992,9.57832836 C31.1333273,11.9393787 30.7976239,14.9040914 31.4059083,17.8533932 L31.6334165,18.4663592 L31.5539327,18.4983688 C32.1949786,21.035914 33.5135424,23.5284501 35.226974,25.5794466 C37.0849603,27.8034767 48.7860935,28.0192764 51.3034638,25.4584151 C54.5060095,22.2005411 56.3804317,12.9591713 54.2303847,9.80770023 L54.1067801,9.63896051 L53.9809214,9.49277664 C51.015179,6.32545056 35.1904568,6.373287 32.8542992,9.57832836 Z M88.1669819,9.57832836 C85.8662205,6.42184823 70.4825425,6.32762495 67.1839305,9.35102137 L67.0403596,9.49277664 L66.9145009,9.63896051 L66.7908963,9.80770023 C64.6408493,12.9591713 66.5152715,22.2005411 69.7178172,25.4584151 C72.2351876,28.0192764 83.9363207,27.8034767 85.794307,25.5794466 C87.4069485,23.6490969 88.669811,21.3276257 89.347247,18.9456229 L89.4673483,18.4983688 L89.3878645,18.4663592 L89.6153727,17.8533932 L89.6153727,17.8533932 C90.2236571,14.9040914 89.8879537,11.9393787 88.1669819,9.57832836 Z" id="Shape" fill="#000" blush:i="0.5.0.5.0.0"/></g></g></g></g><g transform="translate(1525.500000, 825.500000) scale(-1, 1) translate(-1525.500000, -825.500000) translate(1115.000000, 359.000000) scale(1.0874172185430464 1.0861466821885915)" blush:width="821" blush:height="933" id="Master/Character/Sitting" blush:component="Master/Character/Sitting" blush:i="0.6"><g id="Master/Character/Sitting" stroke="none" stroke-width="1" fill="none" fill-rule="evenodd" blush:has-customizable-skin="true" blush:i="0.6.0"><g id="Legs Sitting" transform="translate(243.000000, 266.000000) scale(1 1)" blush:width="525" blush:height="423" blush:component="Legs Sitting" blush:i="0.6.0.0"><g id="Legs Sitting/ Red Shorts Straight Cool" stroke="none" stroke-width="1" fill="none" fill-rule="evenodd" blush:i="0.6.0.0.0"><g id="Group-15" transform="translate(0.000000, -1.000000)" blush:i="0.6.0.0.0.0"><path d="M154.04271,355.980399 C154.04271,355.980399 107.334721,311.69283 107.333767,311.69283 C104.802464,309.297368 102.696541,307.417575 104.971281,304.782267 C131.97535,273.530329 158.341348,241.753729 183.234727,208.939794 C202.460808,183.40019 221.27486,157.327927 236.806993,129.51878 C246.532578,113.114311 241.534827,107.736763 225.70035,101.497768 C203.550012,92.4875523 179.441586,85.6689296 155.794784,79.9565967 L172.619274,3 C220.271495,15.9926592 337.30757,41.3453837 323.944308,111.576298 C312.553442,167.425445 273.870467,213.654767 242.243478,258.036276 C216.107338,292.475168 188.723669,325.487974 160.851669,357.742268 C158.554993,360.401561 156.57306,358.376861 154.04271,355.980399" id="Fill-1" fill="#dcb284" blush:i="0.6.0.0.0.0.0" blush:color="skin-600"/><path d="M137.870215,1.32416588 L107.422406,81.4133893 C106.767755,84.6886932 106.898115,87.4535083 107.646966,87.5831246 C141.750619,94.292263 178.767846,103.598712 210.575466,116 L226.262328,70.1407605 C223.61994,65.2751645 220.828162,60.4175448 217.913637,55.5928278 C222.900586,53.7223651 227.94082,51.9436308 233.062886,50.2626072 L249,3.67153424 C232.380421,1.27011002 195.33716,0.487653899 137.870215,1.32416588 Z" id="Fill-3" fill="#CC2935" blush:i="0.6.0.0.0.0.1"/><path d="M179.139571,346.968669 C204.093618,317.804775 228.777267,287.619371 252,256.830439 L182.730233,200 C154.456878,237.580374 123.786245,273.959676 93,309.397274 C93.7022715,310.04669 114.006995,328.79897 115.306436,330.000041 C117.311015,328.33111 119.098702,326.955464 120.937029,325.511984 L128.576979,342.256159 C142.478132,355.092861 170.803083,381.258067 184.602957,394 L191.535857,385.978557 C196.826303,379.867457 180.138039,360.274228 179.139571,346.968669" id="Fill-5" fill="#0A1B45" blush:i="0.6.0.0.0.0.2"/><path d="M350.941011,416.967612 C347.527508,417.047657 344.775914,417.224756 344.684353,414.021956 C342.708165,360.550895 335.043759,305.904172 318.277633,255.484827 C281.993788,139.255483 198.193965,105.098428 105,94.8665276 L131.820651,21 C198.850819,44.8333991 272.454292,62.7194546 324.939639,116.74883 C382.193779,176.740557 403.702947,262.803942 414.667358,344.229719 C417.444704,366.556271 419.275921,388.8418 419.994101,411.537559 C420.101876,415.320686 417.322623,415.29167 413.915796,415.374716 L350.941011,416.967612 Z" id="Fill-7" fill="#ffdbb4" blush:i="0.6.0.0.0.0.3" blush:color="skin-500"/><path d="M99.6080022,1 C99.2753227,4.36282152 22.4871033,99.8046264 68.9066045,100.063552 C115.326106,100.322477 154.002385,102.533561 177.331201,113 L187.182528,89.9347051 C184.092816,85.2562148 180.786096,80.6107915 177.331201,76.0034454 C182.308965,73.718811 187.352692,71.5233575 192.511136,69.4601723 L205,28.4860558 C183.177628,21.9968925 148.046963,12.8348739 99.6080022,1 Z" id="Fill-12" fill="#FA3239" blush:i="0.6.0.0.0.0.4"/><path d="M426.325156,389.437502 C423.683889,348.136751 417.978789,307.227002 408.1482,267 L323,290.146266 C333.393373,333.097243 338.902928,378.512529 339.589715,423.061597 C340.526416,423.068615 367.587721,423.276147 369.320903,423.290183 C369.757776,421.663016 370.226126,418.715469 370.557119,417.003084 C376.060952,419.06737 381.552384,421.257979 387.008523,423.425529 C405.534595,423.566891 443.290696,423.859641 461.681318,424 C461.677503,422.085097 461.658425,418.215188 461.616455,416.317328 C465.448153,398.358344 439.624018,400.872783 426.325156,389.437502" id="Fill-11" fill="#0A1B45" blush:i="0.6.0.0.0.0.5"/><path d="M94.7163462,100 C42.4061346,100 -4.00177669e-11,55.676 -4.00177669e-11,1 L199,1 C199,55.676 156.593865,100 104.283654,100 L94.7163462,100 Z" id="Fill-13" fill="#FA3239" blush:i="0.6.0.0.0.0.6"/></g><path d="M56,99 C25.072054,99 -4.00139793e-11,73.927946 -4.00177669e-11,43 L-4.00177669e-11,0 L199,0 C199,54.676 156.593865,99 104.283654,99 L56,99 Z" id="PELVIS-PLUS" fill="#FA3239" blush:i="0.6.0.0.0.1"/></g></g><g id="Body" transform="translate(-33.000000, -31.000000) scale(1 1)" blush:width="863" blush:height="528" blush:component="Body" blush:i="0.6.0.1"><g id="Body/Tee Wave" stroke="none" stroke-width="1" fill="none" fill-rule="evenodd" blush:i="0.6.0.1.0"><g id="Right-Arm" transform="translate(613.724053, 228.721560) rotate(-10.000000) translate(-613.724053, -228.721560) translate(428.224053, 123.721560)" blush:i="0.6.0.1.0.0"><path d="M51.3964283,21.8427299 L51.8992912,21.8460448 C65.4678035,22.0296362 78.29468,29.82425 83.1401,42.764 C99.5311,84.993 123.4941,133.828 170.9071,142.639 C190.9491,145.926 211.7981,142.896 231.6171,138.273 C243.94111,135.618293 256.433464,130.008939 268.18931,127.347187 C290.104439,119.143228 315.216158,111.387757 336.445202,111.330302 L337.4054,111.333 L337.4054,111.333 L337.973572,111.331288 L337.973572,111.331288 L338.544461,111.333287 C357.235144,111.459188 379.87434,117.5189 367.2294,128.735 C365.348244,129.505221 358.455991,130.601397 350.250003,132.355177 L349.94689,132.420165 C357.532854,136.241382 362.062929,142.377492 357.6402,148.5677 C348.763297,157.848702 339.20238,141.515654 322.447631,141.80163 C322.408445,141.827175 322.370093,141.851504 322.331831,141.875889 C317.31293,145.074561 313.867014,149.228861 313.5354,154.85 C313.1634,161.32 315.6324,164.84 319.3264,166.726 C326.1294,170.54 339.5174,165.85 341.0004,176.31 C343.0134,186.699 330.9204,186.562 323.1434,187.591 C311.057437,188.956241 293.84765,188.688678 283.610342,192.105618 L283.0384,192.303 L283.0384,192.303 C282.889522,192.307488 282.741582,192.305932 282.594574,192.298447 L281.968458,192.508693 C279.65581,193.27641 277.2825,193.9312 274.8771,194.471 C261.3241,198.918 246.9351,202.811 232.8021,205.497 C218.82762,208.22349 204.321094,209.907487 189.827605,209.996374 L188.712756,210.000056 C166.41666,210.0104 144.1845,206.2118 124.0011,196.592 C83.1581,177.298 54.8811,139.313 35.6851,99.827 C23.0641,73.638 3.6141,36.253 42.3221,23.005 C45.32612,22.22218 48.3773792,21.8437768 51.3964283,21.8427299 Z" id="SKIN-DARKER" fill="#dcb284" blush:i="0.6.0.1.0.0.0" blush:color="skin-600"/><path d="M42.3221,23.005 C59.0111,18.656 77.1581,26.789 83.1401,42.764 C99.5311,84.993 123.4941,133.828 170.9071,142.639 C190.9491,145.926 211.7981,142.896 231.6171,138.273 C243.940411,135.618444 256.432047,130.009575 268.187309,127.347641 C290.434253,119.019669 315.975573,111.153344 337.4054,111.333 C356.2964,111.214 380.1324,117.29 367.2294,128.735 C365.32509,129.514701 358.285563,130.628432 349.946398,132.420237 C357.532854,136.241382 362.062929,142.377492 357.6402,148.5677 C348.763297,157.848702 339.20238,141.515654 322.447631,141.80163 C317.365651,145.011306 313.869542,149.186009 313.5354,154.85 C313.1634,161.32 315.6324,164.84 319.3264,166.726 C326.1294,170.54 339.5174,165.85 341.0004,176.31 C343.0134,186.699 330.9204,186.562 323.1434,187.591 C310.8294,188.982 293.1964,188.678 283.0384,192.303 C282.889522,192.307488 282.741582,192.305932 282.594574,192.298447 C280.085623,193.156809 277.500446,193.88229 274.8771,194.471 C261.3241,198.918 246.9351,202.811 232.8021,205.497 C196.9701,212.488 157.6401,212.625 124.0011,196.592 C83.1581,177.298 54.8811,139.313 35.6851,99.827 C23.0641,73.638 3.6141,36.253 42.3221,23.005 Z" id="SKIN-DARKER" fill="#dcb284" blush:i="0.6.0.1.0.0.1" blush:color="skin-600"/><path d="M108.0793,84.7891 C99.0854796,69.4308264 94.1923082,54.762552 86.4735468,37.599422 C76.061845,14.4483771 57.8781328,1.00606578 29.9995492,0 C-35.2684508,8.228 25.5863,89.0091 42.5433,123.2741 L108.0793,84.7891 Z" id="Fill-6" fill="#3F8FD4" blush:i="0.6.0.1.0.0.2"/></g><path d="M312,149 L448,149 C470.09139,149 488,166.90861 488,189 L488,300 L488,300 L272,300 L272,189 C272,166.90861 289.90861,149 312,149 Z" id="body" fill="#55B0EB" blush:i="0.6.0.1.0.1"/><path d="M334,149 C334,167.225397 354.594902,182 380,182 C405.405098,182 426,167.225397 426,149" id="SKIN" fill="#ffdbb4" blush:i="0.6.0.1.0.2" blush:color="skin-500"/><g id="Left-Arm" transform="translate(9.000000, -43.000000)" blush:i="0.6.0.1.0.3"><path d="M56.3284042,7.94468523 C61.1746344,7.85761143 65.2242773,11.3345688 65.5433682,15.8902052 C65.9365152,21.512351 66.4189689,27.1497918 66.9931558,32.7838612 L67.2621694,32.7607786 C72.0986226,32.4136197 76.3238682,35.6868052 76.8638682,40.1688052 C76.2637976,49.7329519 86.0285373,70.3295861 76.2080232,75.5767246 C76.3876612,76.5213361 76.5714628,77.4548711 76.7571682,78.3751052 C85.5041682,118.859105 97.3561682,163.161105 129.064168,191.442105 C164.943168,220.040105 216.796168,212.826105 259.800168,202.636105 C276.518168,198.496105 293.834168,208.637105 299.703168,225.039105 C306.114168,243.068105 294.815168,261.929105 276.104168,266.591105 C242.022168,275.220105 205.072168,280.190105 169.010168,275.860105 C136.491168,272.188105 103.054168,258.967105 79.1731682,235.317105 C48.1541682,205.281105 31.0491682,164.453105 19.6881682,123.971105 C17.724075,116.756523 15.9500326,109.546861 14.3457001,102.316887 C11.298743,99.8696836 9.2548126,95.3228443 9.01196824,91.1759052 C4.70396824,69.3869052 1.82396824,47.6629052 0.0879682414,25.7159052 C-0.331031759,20.4179052 3.43996824,15.8519052 8.40496824,15.5689052 C13.3649682,15.2909052 17.6299682,19.2169052 18.0329682,24.3139052 C18.4572781,29.6789885 18.9528194,35.0345785 19.5234521,40.3815115 C24.2324724,36.4031208 30.1560885,33.7709341 36.8571682,33.1451052 C41.0450242,32.7608414 45.1634436,33.1492784 49.0462877,34.1975294 C48.4688037,28.5079656 47.9832373,22.8116651 47.5843682,17.1182052 C47.2453682,12.2662052 51.0913682,8.17220515 56.0583682,7.95320515 L56.0583682,7.95320515 Z" id="SKIN" fill="#ffdbb4" blush:i="0.6.0.1.0.3.0" blush:color="skin-500"/><path d="M23.8444682,3.32680515 C8.38546824,4.44380515 18.3734682,32.6828052 17.7964682,43.0118052 C18.3704682,48.1348052 22.8994682,51.7588052 27.8364682,51.1128052 C32.7554682,50.4688052 36.2394682,45.9538052 35.6874682,41.0198052 C34.6074682,31.3958052 33.7924682,21.7438052 33.2404682,12.0708052 C32.9594682,7.12180515 28.8154682,3.20880515 23.8444682,3.32680515" id="SKIN" fill="#ffdbb4" blush:i="0.6.0.1.0.3.1" blush:color="skin-500"/><path d="M39.7887682,0.937105151 C24.3577682,1.55210515 34.0947682,29.1521052 33.4767682,39.2421052 C34.0357682,44.2231052 38.5097682,47.7501052 43.4537682,47.1211052 C57.8137682,45.5901052 47.8377682,19.5711052 49.1157682,9.25510515 C48.8637682,4.47810515 44.7527682,0.810105151 39.7887682,0.937105151" id="SKIN" fill="#ffdbb4" blush:i="0.6.0.1.0.3.2" blush:color="skin-500"/><path d="M219.0093,282.8579 C257.2193,277.3819 353.014802,273.056971 323.337802,214.041971 C316.306802,197.895971 320.461141,192 297.818076,192 C263,192 233.604959,203.255259 213.7493,207.0409 L219.0093,282.8579 Z" id="Fill-23" fill="#55B0EB" blush:i="0.6.0.1.0.3.3"/></g></g></g><g id="Head" transform="translate(288.000000, -61.000000) scale(1 1)" blush:width="127" blush:height="211" blush:component="Head" blush:i="0.6.0.2"><g id="Head/Bun" stroke="none" stroke-width="1" fill="none" fill-rule="evenodd" blush:i="0.6.0.2.0"><circle id="Oval" fill="#000" cx="29" cy="70" r="25" blush:i="0.6.0.2.0.0"/><g id="Head" transform="translate(22.000000, 72.000000)" blush:i="0.6.0.2.0.1"><g id="head" transform="translate(0.000000, 0.000100)" fill="#ffdbb4" blush:i="0.6.0.2.0.1.0" blush:color="skin-500"><path d="M13,62 L58,62 L58,113.633 C58,127.538 47.926,138.81 35.5,138.81 C23.074,138.81 13,127.538 13,113.633 L13,62 Z" id="SKIN" blush:i="0.6.0.2.0.1.0.0"/><path d="M60.0525,94 L55.0655,94 C31.8335,94 13.0005,75.167 13.0005,51.935 L13.0005,32.203 C13.0005,14.418 27.4175,0 45.2035,0 L50.7965,0 C68.5825,0 83.0005,14.418 83.0005,32.203 L83.0005,71.052 C83.0005,83.726 72.7265,94 60.0525,94" id="SKIN" blush:i="0.6.0.2.0.1.0.1"/><path d="M25,58.5 C25,65.403 19.404,71 12.5,71 C5.596,71 0,65.403 0,58.5 C0,51.597 5.596,46 12.5,46 C19.404,46 25,51.597 25,58.5" id="SKIN" blush:i="0.6.0.2.0.1.0.2"/></g><path d="M10.067,53.1685 C10.9718309,53.1685 12.2239875,53.3771928 13.5088204,54.0196092 C15.6553998,55.0928989 17.0130325,57.055328 17.10411,59.9021045 L17.109,60.2105 L14.109,60.2105 C14.109,58.3751144 13.4076866,57.3231443 12.1671796,56.7028908 C11.7065142,56.4725581 11.1976823,56.3199085 10.686339,56.2346846 C10.4347302,56.1927498 10.2385731,56.1747448 10.1250097,56.169908 L10.067,56.1685 L10.067,53.1685 Z" id="ear-line" fill="#000" blush:i="0.6.0.2.0.1.1"/><path d="M34.7507501,96.3317762 C25.4557924,93.0436693 20.8185822,84.7387742 18.9822222,73.5681961 C26.2532122,85.6702724 39.4406226,93.8133264 54.5439426,93.9968331 L55.0655,94 L58,94 C50.0632106,98.2298391 42.3134606,99.0070978 34.7507501,96.3317762 Z" id="SHADOW" fill="#000" opacity=".12" blush:i="0.6.0.2.0.1.2"/></g><path d="M72.8086245,72 C89.5888073,72 103.384617,84.7181817 104.999901,100.998998 L43.973,100.998 L39.4959832,117.92634 L37.6122668,117.973042 C36.103273,118.003782 34.2071707,118.024615 34.0157661,117.940922 L34,117.92634 L34.0133311,116.935282 C34.0935066,112.893789 34.4987262,104.151433 34.4987262,104.151433 C34.4987262,86.5724777 48.6220557,72.2882344 66.1518229,72.0043074 L66.6840596,72 L72.8086245,72 Z" id="Path" fill="#000" blush:i="0.6.0.2.0.2"/></g></g><g id="Expression" transform="translate(335.000000, 34.000000) scale(1 1)" fill="#000" blush:width="61" blush:height="61" blush:component="Expression" blush:i="0.6.0.3"><g id="Expression/Confident" stroke="none" stroke-width="1" fill="none" fill-rule="evenodd" blush:i="0.6.0.3.0"><polygon id="Stroke-5" fill="#000" fill-rule="nonzero" points="33.1977829 19.396766 36.1476171 18.850434 40.4350211 41.9996 30.5607 41.9996 30.5607 38.9996 36.828 38.999" blush:i="0.6.0.3.0.0"/><g id="Group-19" transform="translate(8.500000, 7.500000)" fill="#000" fill-rule="nonzero" blush:i="0.6.0.3.0.1"><path d="M14.1954,34.0725 C14.1954,37.7467625 17.9374817,41.1446933 21.9550435,41.2765329 L22.1964,41.2805 L22.1964,44.2805 C16.5987295,44.2805 11.3696019,39.7145163 11.1996594,34.3417911 L11.1954,34.0725 L14.1954,34.0725 Z" id="Stroke-1" blush:i="0.6.0.3.0.1.0"/><polygon id="Stroke-3" points="24.4714706 11.8831993 27.4213294 11.3370007 31.7076381 34.4861 21.8344 34.4861 21.8344 31.4861 28.101 31.486" blush:i="0.6.0.3.0.1.1"/><polygon id="Stroke-5" points="24.4714706 11.8831993 27.4213294 11.3370007 31.7076381 34.4861 21.8344 34.4861 21.8344 31.4861 28.101 31.486" blush:i="0.6.0.3.0.1.2"/><polygon id="Stroke-7" points="24.4714706 11.8831993 27.4213294 11.3370007 31.7076381 34.4861 21.8344 34.4861 21.8344 31.4861 28.101 31.486" blush:i="0.6.0.3.0.1.3"/><path d="M15.8347,-0.9994 L15.8347,2.0006 C11.8614229,2.0006 8.23835727,3.06604738 5.03595274,4.84488405 C3.91508362,5.46749218 2.9293314,6.13343565 2.08971515,6.7961842 L1.78614068,7.04060103 C1.50740693,7.26977369 1.30354376,7.45165644 1.17768642,7.57223303 L1.12127275,7.62734759 L-0.999872749,5.50585241 C-0.149341988,4.65546184 1.39872067,3.43350326 3.57919726,2.22231595 C7.05718891,0.290399155 10.9861553,-0.901370813 15.2942223,-0.993621344 L15.8347,-0.9994 Z" id="Stroke-9" blush:i="0.6.0.3.0.1.4"/><path d="M27.8944,-0.6556 C31.8871281,-0.6556 35.5186416,0.412332576 38.717187,2.18913498 C40.5297756,3.19603386 41.8489265,4.21247949 42.6282704,4.95899887 L42.7680602,5.09573983 L40.6467398,7.21706017 C40.5206868,7.09100715 40.2403525,6.83943052 39.815131,6.5037443 C39.087555,5.92936785 38.2326886,5.35179507 37.260363,4.81166502 C34.6146324,3.34195302 31.6384875,2.43381034 28.3845651,2.35065325 L27.8944,2.3444 L27.8944,-0.6556 Z" id="Stroke-11" blush:i="0.6.0.3.0.1.5"/><path d="M6.22711504,12.179414 C7.68074249,15.8134826 14.4334605,15.8772382 15.3216227,12.6199964 L15.363529,12.4423258 L18.305271,13.0306742 C17.0084908,19.5145751 6.22968836,19.5936471 3.53765904,13.5213 L3.44168496,13.293586 L6.22711504,12.179414 Z" id="Stroke-13" blush:i="0.6.0.3.0.1.6"/><path d="M31.227115,12.179414 C32.6807425,15.8134826 39.4334605,15.8772382 40.3216227,12.6199964 L40.363529,12.4423258 L43.305271,13.0306742 C42.0084908,19.5145751 31.2296884,19.5936471 28.537659,13.5213 L28.441685,13.293586 L31.227115,12.179414 Z" id="Stroke-15" blush:i="0.6.0.3.0.1.7"/></g></g></g><g id="Accessories" transform="translate(322.000000, 56.000000) scale(1 1)" fill="#000" blush:width="76" blush:height="48" blush:component="Accessories" blush:i="0.6.0.4"><g id="Accessories/None" stroke="none" stroke-width="1" fill="none" fill-rule="evenodd" fill-opacity="0" blush:i="0.6.0.4.0"/></g><g id="Glasses" transform="translate(314.000000, 42.000000) scale(1 1)" fill="#000" blush:width="95" blush:height="32" blush:component="Glasses" blush:i="0.6.0.5"><g id="Glasses/Thick" stroke="none" stroke-width="1" fill="none" fill-rule="evenodd" blush:i="0.6.0.5.0"><path d="M43.5452664,3.00012344 C49.2894512,3.02462661 55.021427,4.35163303 57.0857956,6.97405047 C58.0938547,8.25461237 58.6772219,10.0147386 58.9068842,11.9996703 L62.1143968,11.9996703 C62.3440591,10.0147386 62.9274264,8.25461237 63.9354854,6.97405047 C65.9529365,4.41123343 71.4731799,3.0856142 77.0844275,3.00401411 L77.4760146,3.00012344 L77.8967218,3.00012344 L80.8146938,3.0378718 C91.0822714,3.2070925 94.9796428,3.73089949 95.893837,5.69362755 C96.9046181,7.86372269 97.4724619,10.8486323 96.5699433,12.3975628 L96.4345265,12.6077971 C96.2607766,12.8804731 95.8187885,13.7026763 95.3317143,14.6775352 L95.2267324,14.8886255 L94.7966033,15.7746065 C94.1772527,17.0747485 93.6217104,18.3482986 93.2115536,19.4320065 L93.1438986,19.6872046 L93.1438986,19.6872046 C92.2530855,22.9637972 90.4857872,26.1972123 88.6985341,28.3365739 C85.3492115,32.34575 71.1131799,32.6082999 67.0329763,28.4576053 C64.4038322,25.7830393 62.5077693,20.7417692 62.087653,15.9998009 L58.933628,15.9998009 C58.5135117,20.7417692 56.6174488,25.7830393 53.9883048,28.4576053 C49.9081011,32.6082999 35.6720695,32.34575 32.3227469,28.3365739 C30.5354938,26.1972123 28.7681955,22.9637972 27.8773824,19.6872046 L27.8097274,19.4320065 C27.4233065,18.4110132 26.9078403,17.2215143 26.331547,16.0000268 L0,16 L0,12 L24.2628445,12.0004643 C23.6422666,10.3774347 24.1973223,7.69055104 25.127444,5.69362755 C26.0970439,3.61194627 30.4223758,3.14888604 42.1443686,3.0107703 L43.1245592,3.00012344 L43.5452664,3.00012344 Z M32.8542992,9.57832836 C31.1333273,11.9393787 30.7976239,14.9040914 31.4059083,17.8533932 L31.6334165,18.4663592 L31.5539327,18.4983688 C32.1949786,21.035914 33.5135424,23.5284501 35.226974,25.5794466 C37.0849603,27.8034767 48.7860935,28.0192764 51.3034638,25.4584151 C54.5060095,22.2005411 56.3804317,12.9591713 54.2303847,9.80770023 L54.1067801,9.63896051 L53.9809214,9.49277664 C51.015179,6.32545056 35.1904568,6.373287 32.8542992,9.57832836 Z M88.1669819,9.57832836 C85.8662205,6.42184823 70.4825425,6.32762495 67.1839305,9.35102137 L67.0403596,9.49277664 L66.9145009,9.63896051 L66.7908963,9.80770023 C64.6408493,12.9591713 66.5152715,22.2005411 69.7178172,25.4584151 C72.2351876,28.0192764 83.9363207,27.8034767 85.794307,25.5794466 C87.4069485,23.6490969 88.669811,21.3276257 89.347247,18.9456229 L89.4673483,18.4983688 L89.3878645,18.4663592 L89.6153727,17.8533932 L89.6153727,17.8533932 C90.2236571,14.9040914 89.8879537,11.9393787 88.1669819,9.57832836 Z" id="Shape" fill="#000" blush:i="0.6.0.5.0.0"/></g></g></g></g></g></svg>