<svg viewBox="-7.953548387096589 -14.300000000000182 1087.7534050179215 1458.5999999999992" xmlns="http://www.w3.org/2000/svg" xmlns:blush="http://design.blush" overflow="visible" xmlns:xlink="http://www.w3.org/1999/xlink" width="1087.7534050179215px" height="1458.5999999999992px"><g id="Master/Textures/Colorful" stroke="none" stroke-width="1" fill="none" fill-rule="evenodd" blush:i="0"><g id="Textures/Colorful" blush:width="1072" blush:height="1430" blush:component="Textures/Colorful" blush:i="0.0" transform="scale(1 1)"><g id="Textures/Colorful/Squiggle 19" stroke="none" stroke-width="1" fill="none" fill-rule="evenodd" blush:i="0.0.0"><g id="Group-61" transform="translate(-4.000000, -12.000000)" blush:i="0.0.0.0"><path d="M60.4662,196.5082 C50.8102,196.5292 43.4232,193.7752 53.8052,186.0112 C38.3662,186.4692 53.9242,170.1492 62.5662,172.8742 C83.0742,173.6622 68.5582,153.9642 84.7052,148.9532 C68.8892,130.2802 70.7652,114.0002 97.9012,120.6582 C106.2862,113.1442 113.6062,104.0752 126.2682,108.7372 C136.2502,109.0512 138.5552,100.4142 144.0762,94.8512 C155.9662,88.3162 176.4862,94.1712 190.4172,94.6982 C200.5282,84.9042 197.2402,83.8352 213.2282,85.1912 C228.5052,83.7762 250.0912,78.0652 262.1552,89.1322 C267.5142,103.7992 294.5042,86.7142 291.4312,107.9262 C309.5452,116.6942 335.2262,111.4572 314.0112,143.4572 C312.0222,151.3432 330.5242,142.3232 326.9192,154.5992 C299.2422,190.5632 317.6172,173.5782 350.4762,181.4872 C376.5252,190.6922 344.6352,210.7582 333.7622,218.7882 C347.7932,221.8052 362.5042,221.9072 376.3332,225.6492 C380.9702,226.8182 387.9002,234.1152 387.3152,237.4982 C386.3512,268.1432 344.5952,248.7232 338.4602,260.7792 C341.3172,272.7722 345.6862,292.6262 328.3562,295.9762 C295.9792,288.3082 329.8912,328.8052 288.1492,318.1842 C273.4762,317.6442 296.6612,337.4082 286.3912,352.5772 C274.9532,365.8162 241.4712,339.5382 240.9102,363.4532 C240.5282,377.8632 236.9552,377.3022 223.1452,378.0582 C191.6872,380.9762 189.0862,344.8212 158.1742,347.3422 C130.8282,346.7132 144.6012,339.4352 132.2772,330.1232 C120.5072,325.5572 92.0572,335.6022 91.3802,318.8102 C96.1782,291.4152 72.0002,301.8272 57.0512,293.7522 C60.8172,290.5532 60.7252,285.3212 58.6992,281.7752 C71.8802,270.0692 44.7222,275.5572 39.0372,269.4552 C42.1662,264.2792 35.7482,254.2332 47.5132,253.1872 C55.3732,243.9912 58.5432,232.9632 45.1962,228.4032 C45.2202,220.1432 41.8322,210.3032 53.0352,205.6782 C57.8912,203.4742 71.8752,195.3922 60.4662,196.5082" id="Fill-1" fill="#D4494C" blush:i="0.0.0.0.0"/><path d="M339.7944,752.0239 C306.8464,743.3469 377.4054,815.4179 310.6154,809.4489 C309.5244,809.5739 307.7364,813.4469 308.1234,815.1739 C328.1894,871.4279 272.8994,829.2529 268.7314,851.8749 C251.8284,859.8509 267.0904,883.9739 255.4544,905.4309 C210.9384,921.2339 208.9994,865.8449 187.9024,848.5799 C173.5674,888.0909 169.5104,909.2969 126.0154,883.6709 C127.5774,871.7929 128.5424,857.5699 134.9744,847.1889 C125.0994,843.4329 119.7354,846.3069 123.2534,833.1849 C83.3574,852.9329 31.0744,832.5029 92.5364,801.0919 C76.5234,796.3669 47.2694,796.2069 40.6714,779.1879 C41.4694,771.6109 35.6094,774.9799 34.2184,772.2949 C24.4144,734.3559 73.4184,752.2349 80.0584,736.0749 C57.4504,735.8389 46.8224,716.2099 68.5434,704.0799 C69.8944,703.6249 68.4914,695.2649 68.5024,690.5699 C69.3514,675.2729 62.8344,659.0729 85.0714,661.2749 C83.8144,650.9439 80.6304,631.3579 97.1024,634.9399 C139.4644,629.4469 162.6134,681.3909 164.2304,637.6679 C166.4814,626.3159 173.8324,625.1949 183.3674,628.0609 C198.1424,629.0519 215.5304,632.5139 214.3304,651.3429 C221.4314,676.4199 217.9424,619.3909 268.1464,637.6009 C282.4324,639.1599 275.9564,650.9939 273.7054,658.5799 C272.1964,670.1229 319.5154,666.6539 331.0234,673.9149 C340.1634,678.6669 328.9164,701.5369 319.5654,707.5049 C342.1394,713.7379 390.6234,747.6399 339.7944,752.0239" id="Fill-3" fill="#2A4069" blush:i="0.0.0.0.1"/><path d="M493.6909,367.7631 C525.1889,379.7841 492.1589,303.3951 524.1299,314.0931 C530.8859,317.4911 541.1429,313.5641 549.1109,314.5151 C555.0769,323.8741 556.1479,314.8011 559.3569,312.1051 C574.9159,299.8201 599.1979,305.5711 606.0199,325.8851 C612.8729,313.0431 641.5199,306.7641 652.1689,316.3181 C661.3449,323.4921 646.9609,346.9951 658.5259,348.5811 C687.9299,329.3621 770.9879,330.2151 720.4099,377.2131 C729.4129,384.7481 751.8909,379.3731 747.1009,396.3931 C747.4369,410.0001 730.7269,407.8681 721.2779,410.3851 C744.2049,433.0361 770.8649,448.4401 757.8859,484.1231 C761.8369,520.8761 726.8169,497.2451 711.6349,504.7711 C718.1839,517.1881 732.6749,539.2321 710.4679,543.4531 C703.0109,545.4201 691.5409,536.6951 685.8899,543.0531 C685.3399,556.3711 686.3959,577.5511 667.5879,576.8191 C629.1889,577.8881 625.1229,541.7051 610.0159,550.4631 C606.6399,573.9991 582.5389,558.3331 566.7999,558.0911 C562.6789,554.7771 567.1649,545.1651 559.5319,550.6651 C530.5879,554.8861 499.4549,549.3891 524.2039,514.7481 C532.7659,506.2081 534.1619,493.1451 545.7949,488.2451 C549.1529,487.9571 549.3019,486.3571 547.7369,483.6781 C530.0349,491.6021 512.7209,495.1791 493.3989,488.4951 C465.6159,475.1601 514.6929,453.4141 527.6019,447.0941 C520.9879,430.1231 455.8499,450.7251 443.3629,422.9171 C438.1329,397.0521 468.6009,404.4191 484.7509,400.6741 C461.5849,390.6401 471.8519,366.9061 493.6909,367.7631" id="Fill-5" fill="#2A4069" blush:i="0.0.0.0.2"/><path d="M855.7328,961.5053 C858.2988,999.3383 818.5868,958.8883 816.7918,977.4603 C814.2188,985.4663 818.3378,1000.8763 809.3128,1004.1093 C797.0738,997.9833 779.4678,1001.2573 773.4208,983.9323 C773.1318,983.1043 769.6868,982.8853 767.8458,983.1923 C755.2908,988.3983 739.4928,983.2083 729.2638,975.9703 C732.0448,964.9283 722.7118,966.4843 717.4918,965.2933 C682.7088,961.8193 723.2888,925.4273 694.1878,922.7803 C655.9018,916.6513 707.0328,896.0253 652.4588,887.7693 C639.3338,885.8713 638.5758,877.3933 642.6868,867.8363 C650.4568,863.1013 675.0218,850.5043 656.9198,840.5693 C643.3428,836.2463 640.1288,825.9473 647.5678,813.1103 C668.1338,804.7113 694.2638,822.6273 716.5718,822.2193 C712.2448,808.1073 690.2208,804.2883 688.7908,788.0693 C688.5358,781.3703 689.3298,773.7963 699.9628,777.8163 C711.7218,783.7373 704.3008,770.8193 713.1638,769.6063 C726.6458,774.3753 753.4618,768.0963 755.3768,787.1583 C759.7148,800.4163 778.8358,760.9963 779.0138,752.9023 C789.1178,743.3383 827.2328,751.2523 824.7488,769.6753 C831.5918,777.8613 846.9558,775.6103 856.7208,779.8763 C899.8478,795.0073 823.0648,802.5873 914.6858,817.7773 C919.7818,826.9533 905.8498,832.8743 900.3648,838.4473 C895.3108,846.5023 930.9518,843.7403 935.5998,853.5703 C934.4018,869.4733 903.5128,864.1903 925.1778,874.2793 C926.5988,875.5633 927.0938,879.8673 926.0198,881.4933 C885.4458,911.5783 933.1468,893.1853 915.1518,939.3633 C911.5848,954.4883 903.9378,945.5543 897.3148,944.1283 C871.6158,938.2693 912.2768,976.1523 855.7328,961.5053" id="Fill-7" fill="#D4494C" blush:i="0.0.0.0.3"/><path d="M294.8901,1158.475 C330.1791,1160.985 344.0041,1176.386 333.3901,1132.067 C329.9891,1108.211 350.7271,1127.836 358.6191,1113.688 C365.0791,1105.437 374.3581,1110.867 382.9641,1110.9 C398.7741,1111.522 398.1801,1126.6 406.5731,1135.102 C410.5811,1099.719 470.1271,1096.489 456.1541,1133.664 C452.4071,1144.154 455.5351,1146.449 464.2801,1139.697 C495.8051,1124.194 520.7021,1137.364 495.8241,1171.171 C517.2101,1171.382 539.3501,1161.898 559.9291,1170.379 C567.0781,1187.968 534.1681,1194.147 522.8261,1202.667 C508.1751,1212.913 538.6141,1205.402 556.8291,1238.69 C541.0741,1243.759 543.4491,1256.954 540.2601,1269.754 C537.4121,1273.273 525.5681,1273.809 519.8291,1273.108 C523.8591,1287.795 531.1791,1318.629 505.6521,1309.153 C503.6381,1309.547 494.8571,1301.926 499.1101,1313.589 C500.1321,1341.35 468.7941,1314.393 458.2171,1320.196 C459.2721,1350.912 414.8771,1336.204 406.6081,1319.133 C393.2701,1325.591 396.7161,1355.754 377.2351,1350.426 C367.2071,1346.48 347.5051,1350.951 354.4891,1332.609 C358.8241,1320.259 344.6911,1324.575 338.7751,1322.038 C318.5751,1322.389 335.0121,1304.076 337.2041,1292.288 C328.9151,1280.865 301.0371,1292.315 298.7131,1273.441 C301.4621,1251.522 297.5361,1265.631 291.2981,1252.908 C294.3981,1234.863 304.8071,1227.756 320.7981,1221.87 C307.8561,1214.337 281.6371,1217.637 276.2381,1201.979 C278.5411,1187.79 288.6981,1187.067 301.0511,1187.367 C299.2631,1186.098 297.6471,1184.237 295.6581,1183.658 C282.4541,1180.059 285.4191,1161.67 294.8901,1158.475" id="Fill-9" fill="#2A4069" blush:i="0.0.0.0.4"/><path d="M977.5932,264.2133 C954.1352,310.9073 917.9262,232.2753 917.8462,247.9903 C910.3442,264.3083 916.7162,297.9883 893.7432,299.7473 C875.2982,296.5993 855.6552,296.4413 863.8992,272.0823 C862.7572,254.7913 838.0762,267.1053 833.8032,255.3023 C835.7272,249.3163 837.0362,244.7463 827.9222,243.7313 C778.3162,235.7793 805.9582,238.2623 794.7732,213.0703 C787.1442,209.8223 772.6802,213.7933 767.8622,205.5433 C766.3212,193.2723 775.4042,183.7193 787.7502,182.8503 C791.0232,182.1923 809.6342,178.7943 804.1402,176.0843 C790.1762,172.8983 769.9072,172.0783 784.5452,154.7593 C795.9792,150.0223 809.1772,150.2013 820.7092,145.5593 C802.5702,134.3183 784.0352,117.4443 792.9162,94.1323 C798.0732,87.3113 810.2062,93.1293 817.2032,94.2423 C836.8082,98.3763 814.2802,74.8163 851.3332,83.4973 C856.6962,82.1223 862.6962,77.8183 865.5682,73.0723 C882.9252,45.0463 909.7142,69.2323 933.9372,56.7213 C998.7682,62.6163 964.8882,60.7033 978.0682,86.8133 C997.0222,88.7813 1030.3032,85.4433 1034.7782,108.5503 C1031.0312,117.5193 1022.2152,126.9093 1021.1122,136.3333 C1027.6682,147.0273 1018.9892,153.9063 1011.6812,158.9613 C1027.0522,171.9493 1062.8722,184.6033 1026.5022,199.8663 C1021.2702,207.0433 1010.7732,200.5103 1016.5432,211.5163 C1033.9342,254.7773 987.3252,221.1653 986.2222,243.0553 C986.3412,250.1183 967.5462,259.0123 977.5932,264.2133" id="Fill-11" fill="#D4494C" blush:i="0.0.0.0.5"/><path d="M884.7797,1144.5893 C900.7317,1147.4983 929.9207,1158.5773 897.6307,1165.7983 C921.2187,1181.3483 906.6317,1187.6693 917.4897,1203.9693 C923.4107,1229.2773 880.4177,1198.7683 896.9677,1222.3543 C899.1097,1225.7563 895.9277,1233.8483 893.0367,1238.4043 C891.9287,1240.1503 884.0527,1239.3773 880.4927,1237.4623 C853.6107,1222.4873 879.0927,1268.5243 857.1497,1269.4143 C845.0287,1266.4423 831.8187,1253.7923 831.0157,1274.2403 C828.9527,1301.8453 802.9317,1268.1983 796.4507,1289.2053 C795.6787,1291.0983 790.8797,1293.0413 788.6847,1292.4013 C741.3847,1292.1163 800.0727,1230.3653 760.2247,1252.8153 C749.5327,1262.0243 717.4447,1266.6573 716.8307,1248.5223 C718.8597,1242.2073 718.3347,1236.1663 711.1747,1235.3873 C693.9157,1233.5093 703.8257,1223.6513 704.5997,1216.2253 C704.1627,1206.6023 682.9467,1208.6763 680.7427,1200.7183 C677.8097,1185.3653 694.5917,1182.8413 706.0927,1178.6143 C669.8807,1171.8863 673.7497,1150.4193 708.7497,1148.6983 C699.7947,1143.7883 682.7587,1146.1903 679.1027,1135.5273 C678.3907,1125.4133 683.8497,1121.6033 693.7627,1123.4353 C684.3767,1113.9993 688.4327,1105.2883 691.0527,1095.2793 C718.5277,1102.2813 709.7767,1094.3873 708.6347,1072.2183 C724.2267,1071.7803 740.6777,1071.4203 750.8767,1085.7853 C801.2497,1105.1873 775.7567,1072.0736 818.5047,1078.8343 C832.0687,1082.9423 847.4097,1088.6523 859.3667,1095.9943 C857.7607,1109.7863 870.1837,1101.1553 874.4057,1105.4993 C877.8017,1110.4123 885.1577,1110.5743 889.4327,1111.9053 C899.8577,1132.6183 872.0707,1151.3043 884.7797,1144.5893" id="Fill-13" fill="#2A4069" blush:i="0.0.0.0.6"/><path d="M376.7162,866.6401 C400.5762,857.4321 353.5392,822.8251 418.6432,844.5581 C422.4402,846.2001 425.8582,851.2971 426.8412,855.6421 C430.6422,843.6841 426.4452,822.1411 445.3312,832.9281 C469.4382,839.7031 493.6292,847.3521 517.7222,854.2581 C523.9242,876.5631 540.5882,863.9731 550.4252,874.1081 C555.0742,885.3541 564.4642,882.6731 571.0052,887.0371 C577.0782,898.4241 548.0942,908.9541 565.2462,911.7411 C580.8102,917.5361 564.1732,930.0381 555.1092,933.0081 C529.6612,938.8431 562.6762,946.9661 566.3202,961.5521 C569.4012,987.0851 535.8002,956.0511 543.5342,982.1481 C543.7372,1013.8941 503.0912,978.3261 498.5832,994.5421 C499.2982,1010.6641 465.8462,1012.2261 467.9212,997.0291 C463.5762,991.0941 457.2822,1010.5531 454.3582,1015.0961 C449.1852,1025.8751 441.1792,1018.0511 434.5702,1017.8581 C427.3312,1017.6461 420.5252,1016.3881 422.5412,1005.4011 C421.3852,1001.3681 394.9852,994.6711 392.3932,992.1611 C392.0272,984.3821 399.9832,975.6821 397.6642,968.3241 C379.2352,967.0121 366.2962,952.9391 387.6762,942.1011 C410.2192,930.2971 350.3972,940.6481 347.2602,926.4761 C345.2792,910.4611 384.1492,916.4001 374.9342,908.9411 C363.1732,904.7311 346.1342,908.3981 339.4302,896.1711 C343.9592,894.6591 336.2082,883.9961 347.3202,886.4881 C354.7312,888.1501 362.8452,886.7171 370.6422,886.5241 C375.1222,882.3211 366.9732,862.4691 376.7162,866.6401" id="Fill-15" fill="#2A4069" blush:i="0.0.0.0.7"/><path d="M952.4995,652.5668 C955.1005,680.9358 936.2435,673.4208 920.9085,665.9978 C912.0695,674.3688 884.3795,678.3328 875.9005,668.3728 C870.9825,661.3208 887.8295,641.8748 872.0575,647.5198 C847.0285,647.6868 819.8615,635.4978 855.8775,621.4468 C841.9325,614.1818 797.1415,617.6788 818.2365,594.7088 C827.4855,594.8118 839.6675,583.5248 836.0815,576.7348 C820.3115,568.2878 803.8765,547.7428 832.7045,545.7408 C839.6535,544.2608 833.1755,528.6668 835.4505,521.5258 C854.5075,519.9598 860.3935,533.5158 865.9335,508.2928 C895.3585,506.4798 915.5145,529.4128 944.2175,522.0398 C967.6885,519.9958 937.2775,548.9348 953.8365,542.5868 C963.1075,545.1208 980.6075,540.7108 984.6995,550.8908 C969.5675,581.1418 1038.0545,552.8188 988.3745,593.1788 C1002.9835,602.4538 984.4185,608.4928 989.2295,611.6618 C1001.2085,613.5498 1011.0545,620.8968 998.7605,630.1708 C982.8485,634.5818 960.1215,636.5608 952.4995,652.5668" id="Fill-17" fill="#2A4069" blush:i="0.0.0.0.8"/><path d="M432.0346,600.1411 C442.0166,600.5611 451.7686,600.4821 453.7716,613.2601 C464.3056,611.3131 464.7936,590.2731 488.9946,601.1481 C490.4836,601.6791 492.4116,603.1821 492.7006,604.5411 C495.4706,617.5501 501.6376,607.6141 506.7636,607.0401 C517.6206,605.8261 528.5736,605.2921 539.4866,605.2881 C535.9366,633.8561 575.3266,609.8151 565.7026,632.8471 C529.4606,666.4301 590.8256,635.1141 584.8396,663.7941 C592.2346,673.0331 594.4716,684.9231 577.3896,682.5551 C581.5276,693.6971 582.2346,707.7721 567.1476,706.2951 C544.9986,704.1471 580.3326,736.3121 528.2416,718.1081 C531.2456,741.9891 526.6236,760.6591 498.6636,744.0001 C485.7486,727.9401 487.7356,761.5871 460.3646,747.4211 C454.7716,746.9111 447.0346,747.3261 449.2576,737.2501 C456.2116,733.5941 448.5906,727.8991 451.0766,723.5551 C445.3996,717.5961 432.7696,720.8701 424.7506,718.5511 C415.3486,708.9581 443.5236,697.6921 424.2176,697.8341 C401.9506,694.0891 418.3116,689.8901 416.0306,678.3761 C409.9096,677.3021 398.3436,675.9851 395.8896,670.3061 C396.9526,665.6481 394.7326,657.2491 404.7686,659.2101 C418.5256,653.8531 384.0786,652.2581 395.1796,637.8511 C397.3786,633.6771 404.9196,629.5991 409.6536,630.0041 C446.8646,636.4281 409.0896,604.2681 432.0346,600.1411" id="Fill-19" fill="#2A4069" blush:i="0.0.0.0.9"/><path d="M101.1498,471.2875 C122.6878,475.2985 114.6478,450.0035 113.1748,437.6755 C122.0758,430.1165 130.6528,442.1735 140.0678,424.5455 C158.4068,423.6855 179.9188,420.1895 200.2638,423.6995 C214.5098,428.1525 260.6008,415.3885 248.1938,442.5585 C247.6008,443.6465 249.9468,447.8825 251.5968,448.3645 C259.4328,450.6555 273.5848,467.9985 275.4808,476.3295 C279.2978,502.8255 251.6288,474.2865 271.9768,510.4205 C266.1558,535.9175 240.1868,503.1895 243.1868,532.6385 C244.6088,545.7305 231.3408,540.1625 223.8788,540.3555 C196.3968,528.5685 210.8698,586.2665 181.0358,561.6255 C167.9398,548.2765 148.3078,554.0855 153.0078,530.7705 C145.3448,535.9955 133.8258,530.2235 124.7368,530.8055 C124.5258,524.9865 128.5158,516.7455 124.5298,511.9605 C112.0188,508.7575 98.0048,509.0835 102.3468,492.3685 C103.7198,482.7255 95.1378,487.4295 91.7048,484.7465 C77.2758,479.0265 91.3068,465.7055 101.1498,471.2875" id="Fill-21" fill="#2A4069" blush:i="0.0.0.0.10"/><path d="M98.2787,1423.1996 C111.0337,1384.0436 88.7127,1390.3186 60.3597,1377.5126 C56.7297,1374.5606 53.9097,1357.9906 64.7607,1362.1306 C114.1327,1374.1946 69.7627,1349.0976 85.7697,1326.1906 C165.5157,1333.8256 86.9537,1308.7466 166.1937,1311.9616 C176.3047,1312.1146 183.4387,1315.4956 181.7407,1327.6146 C182.0757,1334.3996 208.6657,1319.4526 225.9137,1331.1136 C227.3217,1332.5236 223.2397,1348.1956 229.5157,1349.7616 C257.3907,1344.7026 260.0227,1402.6806 233.5687,1397.1996 C233.5517,1406.3976 246.2457,1418.6696 229.8767,1424.0916 C212.9997,1431.6016 219.9437,1441.3056 198.0907,1435.8086 C187.3657,1442.9836 198.9977,1456.7716 177.5297,1453.8486 C156.1207,1453.3006 148.6497,1439.9156 141.9227,1422.7676 C136.8037,1425.3506 134.7627,1437.3116 131.0267,1437.5456 C119.2097,1435.5556 99.0777,1439.8576 98.2787,1423.1996" id="Fill-23" fill="#D4494C" blush:i="0.0.0.0.11"/><path d="M734.5825,1384.5648 C725.8205,1392.5418 707.5905,1392.5058 713.9165,1407.0058 C716.1585,1416.7458 730.0615,1442.8068 710.5355,1440.1398 C625.3745,1405.4938 658.3535,1441.1938 609.1475,1424.8078 C582.4655,1417.9678 563.0135,1430.9608 571.0015,1391.9818 C561.2325,1384.7258 554.4925,1375.8568 555.7555,1362.9598 C572.3495,1338.2328 605.1425,1354.9648 587.6735,1317.7948 C587.4615,1316.8928 589.6405,1314.3858 590.0195,1314.5238 C604.1405,1319.9538 595.9245,1298.2618 609.2445,1297.2238 C642.3585,1302.9008 669.8815,1313.4608 696.9775,1331.0808 C713.0075,1333.6668 709.7925,1348.0918 715.2705,1357.1958 C721.6925,1368.0458 729.2855,1371.7658 734.5825,1384.5648" id="Fill-25" fill="#D4494C" blush:i="0.0.0.0.12"/><path d="M549.0912,167.7377 C545.5662,208.3117 515.5482,166.3377 508.5772,183.8287 C505.0952,201.3247 480.0502,197.4217 475.1722,182.5017 C474.2162,179.2487 466.1062,177.6427 461.0302,176.1497 C432.5622,172.2757 463.2702,148.7597 444.4282,145.1447 C422.0042,141.8417 435.0002,137.8377 434.4252,125.7427 C427.4712,124.0497 413.3472,123.0857 409.4392,118.3277 C408.3312,101.5377 433.7912,106.6327 444.1972,99.9887 C443.3352,92.7807 440.4362,78.5507 439.6822,70.1157 C453.3052,67.5277 471.5792,81.0117 467.5112,57.1707 C473.5722,43.4747 488.7262,58.7527 498.6192,59.5317 C510.2402,61.0597 532.4882,52.5967 531.6142,72.5167 C544.6222,73.5547 565.5442,62.0327 576.9422,71.5347 C577.9422,75.8157 571.5282,86.3777 564.6752,87.1547 C577.3342,96.0947 601.5872,105.4127 577.7122,118.3947 C600.0422,127.9697 601.6212,129.7427 584.7762,146.1657 C589.3852,179.2287 557.3692,155.6357 549.0912,167.7377" id="Fill-27" fill="#2A4069" blush:i="0.0.0.0.13"/><path d="M1041.3656,1397.6469 C1014.4726,1415.2469 985.5196,1391.5279 957.9686,1384.6749 C954.4256,1382.3979 954.4536,1370.6149 948.8116,1368.7819 C937.2246,1362.4329 912.0806,1366.6629 909.0676,1352.3389 C910.1596,1342.8499 915.1316,1340.7269 924.4096,1340.4139 C913.2296,1324.3829 928.6776,1324.1489 908.1656,1311.6259 C919.6406,1298.6499 931.7066,1284.8519 940.1256,1269.8769 C944.7446,1272.3679 954.7006,1274.8719 949.2126,1267.4139 C947.1646,1263.0019 948.0886,1251.6439 957.5626,1254.1419 C976.6806,1257.2569 982.5196,1277.5689 998.4666,1282.3949 C1013.8316,1259.3619 1039.8346,1274.1319 1052.9456,1290.5429 C1051.2296,1300.2609 1041.9396,1309.4749 1058.2146,1310.8249 C1078.3586,1311.8989 1088.8526,1339.6649 1071.8126,1350.0259 C1062.7026,1352.0009 1058.9726,1357.6569 1054.3206,1364.1529 C1036.9306,1366.8929 1051.9506,1374.3259 1052.1936,1379.4819 C1056.9596,1387.6539 1048.5826,1409.4149 1041.3656,1397.6469" id="Fill-29" fill="#2A4069" blush:i="0.0.0.0.14"/><path d="M100.2905,1097.6684 C100.4075,1112.9684 113.7615,1079.7304 135.1195,1097.0394 C137.9405,1098.5574 135.3785,1111.0134 139.2955,1113.5644 C154.6965,1114.2924 179.9255,1117.5324 159.7235,1134.6844 C196.1965,1146.3554 168.5265,1149.5234 171.8955,1161.7094 C185.9145,1173.6674 176.3355,1172.2864 167.7125,1181.6554 C170.2255,1199.2294 162.3935,1205.8854 145.7935,1199.9544 C129.0025,1193.2454 141.0635,1225.2684 104.2595,1204.2204 C103.4195,1203.9124 101.1265,1205.1774 100.8095,1206.1424 C95.5795,1234.6924 68.5255,1214.5994 51.2025,1210.0384 C41.0475,1200.8784 62.6935,1178.0134 41.5845,1176.9224 C21.8055,1175.3484 36.8155,1165.0634 28.6395,1157.2424 C14.2365,1153.8154 15.0515,1139.0494 29.9095,1138.9954 C34.1345,1136.1324 23.3355,1135.6904 21.6885,1133.7974 C9.8215,1129.2764 12.0255,1113.9884 25.6145,1116.1714 C65.2295,1122.8994 39.2385,1111.6894 47.6125,1092.1144 C71.1985,1098.3684 68.9725,1100.4394 77.5915,1079.5944 C86.7075,1081.9934 100.7725,1078.1854 100.2905,1097.6684" id="Fill-31" fill="#2A4069" blush:i="0.0.0.0.15"/><path d="M280.5864,1050.182 C274.6654,1063.184 255.3364,1058.412 249.7604,1069.702 C250.6404,1077.644 247.3154,1079.226 241.2184,1076.311 C220.3564,1063.403 232.5564,1063.258 216.7124,1076.856 C207.0124,1075.171 195.6854,1075.707 191.5144,1062.745 C183.5764,1058.032 158.5964,1062.51 166.5634,1043.41 C163.7284,1032.725 154.0624,1027.348 144.0884,1024.005 C157.1714,1013.262 151.3904,1000.707 153.8924,989.704 C160.2114,984.003 177.1214,990.288 180.3694,978.733 C184.5234,922.52 210.7574,986.046 271.7174,977.326 C281.1484,980.482 271.3314,986.471 270.0134,991.296 C269.1104,1000.844 292.2174,999.651 284.8104,1009.707 C274.0624,1013.483 282.4844,1023.612 277.9854,1029.768 C272.0814,1040.068 272.1074,1040.004 284.6474,1046.808 C292.1364,1050.493 284.2294,1056.706 280.5864,1050.182" id="Fill-33" fill="#D4494C" blush:i="0.0.0.0.16"/><path d="M917.0805,1000.1615 C932.0065,1000.0805 913.5765,992.8635 914.8295,984.9695 C913.2625,963.8425 947.0345,994.0815 943.4855,967.4465 C954.2435,959.7125 970.1275,974.1255 982.2695,967.1195 C1010.6725,973.2905 1030.5015,965.7305 1031.3055,1000.7655 C1079.6725,1044.0865 1013.6175,1017.0825 1025.0755,1039.6555 C1028.0575,1062.2795 999.2795,1052.6275 986.9375,1048.7745 C972.4795,1043.6105 980.1265,1066.7425 971.8275,1073.9945 C948.7475,1073.9785 953.2845,1058.3365 944.0655,1041.2175 C923.4825,1035.8165 922.9515,1036.4525 908.1285,1020.3045 C892.3165,1015.2545 901.4675,996.3325 917.0805,1000.1615" id="Fill-35" fill="#2A4069" blush:i="0.0.0.0.17"/><path d="M1059.7113,805.1186 C1054.3323,808.4626 1039.9623,807.5366 1039.8073,814.2256 C1054.6323,836.0786 1011.0213,835.4726 998.4653,828.7626 C987.6823,812.7786 967.7463,816.0206 954.5153,802.0956 C942.6933,796.0496 919.8153,793.1286 938.5213,779.5146 C954.9723,775.5516 970.6013,779.2796 949.1023,761.7516 C945.8493,755.2926 945.7163,747.1946 955.1183,749.7736 C964.1423,752.5906 971.7603,753.9796 972.4483,740.7406 C1043.3903,711.9796 1019.1523,757.9796 1043.9433,763.4626 C1065.5143,764.5646 1041.0423,784.9886 1056.4673,787.7006 C1075.6203,786.4716 1072.0893,809.1076 1059.7113,805.1186" id="Fill-37" fill="#2A4069" blush:i="0.0.0.0.18"/><path d="M898.9067,385.6625 C902.6057,381.1585 912.8057,388.8945 912.6167,377.3235 C913.1057,371.4815 907.5357,360.8455 916.6417,359.9895 C924.9817,360.1535 938.1347,372.1785 943.6647,364.7085 C946.4127,344.5005 968.9207,356.9625 972.4017,370.3265 C986.5517,367.1635 988.8147,360.3865 1004.6627,369.2965 C1008.7187,384.4355 988.7177,385.4845 1007.2737,399.0645 C1020.2677,413.1305 995.0797,409.4935 1006.3567,428.1195 C1011.3517,456.9825 982.5227,425.4485 975.5887,445.7905 C970.0857,456.9435 945.2247,440.5795 934.9237,439.3005 C915.4817,424.0705 946.1927,424.4415 900.2777,416.4055 C888.7707,413.5835 900.1857,405.2965 895.1477,399.5165 C885.4497,396.3085 893.2247,380.3965 898.9067,385.6625" id="Fill-39" fill="#2A4069" blush:i="0.0.0.0.19"/><path d="M117.9614,29.4535 C111.1794,41.1855 92.5154,42.6285 103.0894,56.8185 C108.0304,63.3515 118.5624,82.6755 102.4054,80.5485 C86.3274,71.8105 85.7654,87.5415 72.9814,90.3565 C60.3734,89.3505 49.0004,80.1835 34.8474,87.0695 C30.4594,88.4855 16.1244,86.1355 13.3734,80.1685 C15.8064,61.5005 3.0824,48.6545 3.4444,30.3285 C3.4144,29.8965 9.1724,28.1515 11.9804,28.6065 C26.7904,33.7505 15.4934,10.0535 31.0814,14.8855 C58.9404,25.6795 91.9214,13.4545 117.9614,29.4535" id="Fill-41" fill="#2A4069" blush:i="0.0.0.0.20"/><path d="M772.5356,684.2104 C742.6706,679.6854 747.0236,705.6834 721.6156,690.6384 C709.5646,684.5694 696.7806,674.3304 686.6086,665.4414 C686.6076,654.7774 672.6716,639.9014 687.7706,634.4284 C692.5196,614.0194 713.1946,640.4004 717.4206,616.3374 C756.4966,634.9814 755.0436,602.7924 781.4966,618.5644 C789.0696,628.5564 763.3046,647.3394 781.0836,650.4534 C789.5556,652.6334 782.9876,658.5634 781.1326,663.0144 C779.0286,670.5124 784.6136,698.0674 772.5356,684.2104" id="Fill-43" fill="#2A4069" blush:i="0.0.0.0.21"/><path d="M689.6284,1011.4389 C669.5534,1004.0219 675.8254,1029.3129 644.1104,1015.3089 C613.7624,1027.9109 602.7114,1023.0109 600.8474,987.7979 C620.6754,986.2619 605.8054,980.6849 603.2904,974.5319 C601.8314,967.0189 597.7984,949.3899 610.4804,953.2649 C623.8274,949.3489 647.1054,965.2089 650.0264,945.6189 C653.8894,939.7909 680.7884,934.0749 678.8424,950.1609 C677.2774,962.9199 686.3564,961.7919 694.2274,963.2459 C712.8334,968.6779 689.9174,981.2979 679.5564,981.7339 C685.1634,991.9489 707.3524,1000.8979 689.6284,1011.4389" id="Fill-45" fill="#2A4069" blush:i="0.0.0.0.22"/><path d="M604.1899,233.7006 C603.5949,238.1516 603.8779,239.7876 603.1879,240.6046 C597.4339,247.4346 603.2589,248.1676 607.2749,251.9106 C612.3419,264.4266 596.1019,278.3356 587.6329,286.7226 C573.2739,292.2186 557.1419,277.7456 542.6929,274.7636 C528.1009,277.7126 519.5449,276.2346 506.2889,270.2216 C506.6489,258.4946 493.7019,219.0316 515.1629,225.5616 C526.1479,227.2636 518.8749,216.8426 523.0249,214.0596 C546.5859,209.5856 581.0829,223.3116 604.1899,233.7006" id="Fill-47" fill="#2A4069" blush:i="0.0.0.0.23"/><path d="M0.1684,379.1615 C-2.3836,360.8115 24.9144,384.8215 23.3004,362.9885 C39.8284,361.3645 75.2574,350.1125 83.2624,373.5995 C84.7614,385.2685 107.7544,394.5945 101.8584,406.8845 C88.7684,409.6235 77.2074,418.8495 64.5124,421.1425 C44.9564,413.7195 32.2154,422.6305 14.8414,415.6885 C1.8654,403.3885 21.1424,400.4275 2.9654,381.8635 C5.4754,379.4135 4.5444,380.3585 0.1684,379.1615" id="Fill-49" fill="#2A4069" blush:i="0.0.0.0.24"/><path d="M656.9096,179.8304 C655.9736,169.7294 652.3946,156.6214 667.4666,161.1214 C675.4876,163.5274 680.0096,162.1914 678.7836,152.5374 C691.7406,147.1424 710.4086,155.5804 725.1056,155.2864 C733.0056,156.1954 734.7126,160.1494 730.1626,166.2854 C718.8596,183.0124 754.2616,185.0344 741.4036,202.3334 C739.7826,204.7674 735.3496,207.7014 733.2256,207.0534 C708.1086,199.6444 695.7406,226.2774 672.0656,226.1424 C671.2026,226.2724 667.4436,219.3434 668.4276,217.5644 C678.9556,201.7554 652.8826,192.0614 656.9096,179.8304" id="Fill-52" fill="#2A4069" blush:i="0.0.0.0.25"/><path d="M14.7153,527.9145 C32.3413,537.0775 96.4693,532.0855 85.9743,556.6515 C84.5573,574.4025 70.8553,583.7105 58.6693,589.0725 C34.3553,595.4605 -10.0607,577.0725 3.6163,544.5545 C14.2223,543.5265 9.7863,531.8805 14.7153,527.9145" id="Fill-54" fill="#D4494C" blush:i="0.0.0.0.26"/><path d="M424.4643,446.52 C422.4723,457.771 410.1193,458.49 415.5873,470.34 C411.4093,483.596 383.3323,483.449 373.8983,480.173 C347.9813,469.408 349.2243,458.603 353.6113,432.019 C365.0873,424.639 385.6773,432.946 400.1033,431.679 C408.7103,435.929 414.7323,443.465 424.4643,446.52" id="Fill-56" fill="#2A4069" blush:i="0.0.0.0.27"/><path d="M748.7387,19.7455 C748.3517,37.4515 733.5787,35.2905 724.2077,44.0195 C707.8957,52.5895 684.4847,38.1265 675.7347,22.7475 C681.4467,-3.9405 689.6977,-1.3845 709.9607,5.9395 C722.1917,6.9985 738.9587,11.3955 748.7387,19.7455" id="Fill-58" fill="#2A4069" blush:i="0.0.0.0.28"/></g></g></g></g></svg>