<svg viewBox="14.221866666666756 21.307000000000016 1043.5562666666665 1394.3929999999993" xmlns="http://www.w3.org/2000/svg" xmlns:blush="http://design.blush" overflow="visible" xmlns:xlink="http://www.w3.org/1999/xlink" width="1043.5562666666665px" height="1394.3929999999993px"><g id="Master/Textures/Colorful" stroke="none" stroke-width="1" fill="none" fill-rule="evenodd" blush:i="0"><g id="Textures/Colorful" blush:width="1072" blush:height="1430" blush:component="Textures/Colorful" blush:i="0.0" transform="scale(1 1)"><g id="Textures/Colorful/Squiggle 28" stroke="none" stroke-width="1" fill="none" fill-rule="evenodd" blush:i="0.0.0"><g id="Group-190" transform="translate(15.000000, 20.000000)" blush:i="0.0.0.0"><path d="M331.9889,1088.3426 C334.1269,1079.3716 331.2969,1060.5516 344.2849,1060.66211 C357.2679,1062.2716 374.2669,1058.3406 378.2649,1078.1776 C381.5689,1094.5696 383.9579,1111.2106 399.1589,1122.2506 C405.0969,1129.0816 398.6319,1145.6216 387.6829,1143.2536 C354.2329,1142.0216 322.7889,1127.6086 331.9889,1088.3426" id="Fill-1" fill="#07ED97" blush:i="0.0.0.0.0"/><path d="M236.421,297.5935 C231.409,325.6415 164.922,338.8455 141.138,358.3625 C118.844,364.8135 129.336,337.1035 138.733,328.8875 C163.776,296.0335 201.16,305.2335 236.421,297.5935" id="Fill-3" fill="#3BA8DF" blush:i="0.0.0.0.1"/><g id="Group-7" transform="translate(395.000000, 0.760000)" fill="#09ED98" blush:i="0.0.0.0.2"><path d="M1.5231,14.3677 C6.4261,10.6137 0.2351,0.0697 6.9831,0.2387 C29.6151,1.7067 76.0141,9.1827 68.4001,40.2366918 C62.5671,45.4187 62.6271,58.8837 49.3091,54.5557 C24.7921,50.1357 -3.8039,45.9577 1.5231,14.3677" id="Fill-5" blush:i="0.0.0.0.2.0"/></g><path d="M31.6808,1350.0144 C30.6748,1326.0334 38.3768,1317.5054 60.1118,1321.4054 C84.1878,1319.5414 86.9838,1350.2734 85.1978,1367.3304 C78.6298,1386.9104 63.3718,1371.1904 53.1008,1375.4974 C36.5198,1374.9474 32.0088,1364.2404 31.6808,1350.0144" id="Fill-8" fill="#07ED97" blush:i="0.0.0.0.3"/><path d="M51.0075,592.5115 C66.2685,592.2115 79.5775,595.0465 92.3135,598.9105 C92.0995,615.5525 80.3055,628.7945 73.8395,643.6065 C60.6845,650.4575 40.6175,640.2615 26.3935,635.8545 C26.7185,617.6155 36.3995,602.9755 51.0075,592.5115" id="Fill-10" fill="#07ED97" blush:i="0.0.0.0.4"/><path d="M922.4117,928.4646 C969.6787,1037.9956 848.5617,937.2416 864.8467,885.9296 C860.7457,874.2766 873.2677,873.5176 879.6057,881.1746 C869.2757,888.0666 874.2407,898.7816 873.6477,907.7556 C866.1417,932.7866 907.3887,923.2276 922.4117,928.4646" id="Fill-12" fill="#3BA8DF" blush:i="0.0.0.0.5"/><path d="M905.9474,71.6267 C914.5274,76.0497 931.7154,73.7177 934.9684,83.1627 C927.5004,114.8397 865.7694,94.1677 841.4014,90.2717 C800.0534,71.2777 892.9124,64.6227 905.9474,71.6267" id="Fill-14" fill="#07ED97" blush:i="0.0.0.0.6"/><path d="M421.13,769.115 C323.697,795.128 410.369,713.174 457.279,734.63 C476.825,747.569 434.978,769.008 421.13,769.115" id="Fill-16" fill="#07ED97" blush:i="0.0.0.0.7"/><path d="M236.421,297.5935 C217.396,302.7025 198.069,303.1435 178.6,301.3405 C70.571,287.9525 282.376,240.4225 236.421,297.5935" id="Fill-18" fill="#07ED97" blush:i="0.0.0.0.8"/><path d="M660.8243,26.0271 C727.8193,30.2431 714.8503,56.5341 660.2923,70.4511 C615.3663,76.8461 631.4373,36.9971 660.8243,26.0271" id="Fill-20" fill="#09ED98" blush:i="0.0.0.0.9"/><path d="M922.4117,928.4646 C907.4077,923.2486 866.1297,932.7736 873.6467,907.7576 C874.2407,898.7816 869.2757,888.0666 879.6037,881.1746 C903.2707,875.1396 974.0807,919.1986 922.4117,928.4646" id="Fill-22" fill="#07ED97" blush:i="0.0.0.0.10"/><path d="M1000.3761,680.6892 C1068.0661,688.1982 993.4151,749.3832 959.2671,715.5762 C950.7681,697.6622 983.1511,680.8522 1000.3761,680.6892" id="Fill-24" fill="#3BA8DF" blush:i="0.0.0.0.11"/><path d="M854.5831,537.3933 C933.3571,549.1363 809.4151,617.2033 819.3751,560.5123 C821.4581,533.2763 831.6851,534.9273 854.5831,537.3933" id="Fill-26" fill="#07ED97" blush:i="0.0.0.0.12"/><path d="M421.13,769.115 C438.978,766.767 453.194,758.544 463.009,743.205 C478.635,751.588 466.213,762.338 463.335,769.743 C447.291,818.713 372.806,841.532 421.13,769.115" id="Fill-28" fill="#3BA8DF" blush:i="0.0.0.0.13"/><path d="M854.5831,537.3933 C831.6671,534.9363 821.4671,533.2703 819.3811,560.5153 C818.6011,588.2743 765.0671,590.9073 782.8701,557.0573 C793.4621,527.8733 840.2791,506.1823 854.5831,537.3933" id="Fill-30" fill="#3BA8DF" blush:i="0.0.0.0.14"/><path d="M175.3371,1165.9304 C156.6951,1189.9664 124.0661,1217.1864 93.8051,1197.3434 C87.3431,1164.8754 152.3181,1161.1244 175.3371,1165.9304" id="Fill-32" fill="#3BA8DF" blush:i="0.0.0.0.15"/><path d="M660.8243,26.0271 C631.8773,36.5381 637.9703,70.9221 600.2413,50.1271 C597.7473,17.6171 631.1273,-3.1019 658.2923,14.8311 C662.6313,16.5751 659.8083,22.2651 660.8243,26.0271" id="Fill-34" fill="#3BA8DF" blush:i="0.0.0.0.16"/><path d="M310.4411,476.5535 C367.4811,485.1645 238.1811,573.1925 265.5341,503.1375 C276.6261,471.3715 305.4021,510.9255 310.4411,476.5535" id="Fill-36" fill="#3BA8DF" blush:i="0.0.0.0.17"/><path d="M937.359,311.7615 C952.151,290.4745 989.907,247.2775 1013.096,278.8185 C1010.784,311.4975 961.79,305.8835 937.359,311.7615" id="Fill-38" fill="#3BA8DF" blush:i="0.0.0.0.18"/><path d="M602.6075,262.8581 C594.3815,208.6211 700.0395,334.7631 654.9905,330.7801 C633.2505,326.5611 628.9315,307.0651 619.1885,291.2101 C630.8115,296.4951 632.7265,287.0481 636.4415,280.0041 C641.6945,265.0791 610.5635,270.2101 602.5405,262.7861 L602.6075,262.8581 Z" id="Fill-40" fill="#3BA8DF" blush:i="0.0.0.0.19"/><path d="M937.359,311.7615 C960.26,308.1015 992.022,301.2385 1010.618,316.6665 C1018.83,346.6815 904.415,332.1945 937.359,311.7615" id="Fill-42" fill="#09ED98" blush:i="0.0.0.0.20"/><path d="M396.5231,15.1277 C395.4641,33.5427 400.5071,47.6387 421.5001,50.4417 C415.0761,69.2017 412.3231,99.5587 386.3031,83.8627 C382.2231,66.3377 378.3081,27.8797 396.5231,15.1277" id="Fill-44" fill="#3BA8DF" blush:i="0.0.0.0.21"/><path d="M323.7086,1328.3132 C345.3826,1334.9282 295.1736,1373.4582 282.4196,1377.2292 C275.3986,1379.8552 254.0166,1379.9372 262.4706,1368.8182 C287.8036,1323.1262 303.8356,1349.9292 323.7086,1328.3132" id="Fill-46" fill="#3BA8DF" blush:i="0.0.0.0.22"/><path d="M103.1183,846.3923 C99.5013,842.4683 95.0933,838.9793 92.6023,834.4373 C91.3693,832.1883 81.0213,832.6623 89.2123,826.4253 C89.3413,826.3283 88.2243,823.5693 87.4083,823.3993 C73.3273,820.4623 82.0293,812.6133 83.7503,806.4163 C88.0853,801.4063 104.9693,810.3183 109.3373,812.1093 C118.5503,821.6443 133.2793,827.3243 135.0523,843.1253 C135.7683,849.5083 145.6573,856.9433 132.8523,861.7143 C126.3613,859.6773 126.1213,859.3093 127.2273,858.5863 C141.3553,850.1123 108.2053,849.8333 103.1183,846.3923" id="Fill-48" fill="#3BA8DF" blush:i="0.0.0.0.23"/><path d="M175.3371,1165.9304 C154.0691,1162.4514 120.9241,1166.0194 106.0381,1152.4304 C106.5391,1128.0304 156.5361,1145.9994 174.6891,1143.8114 C186.0611,1146.8074 181.1161,1159.0594 175.3371,1165.9304" id="Fill-50" fill="#09ED98" blush:i="0.0.0.0.24"/><path d="M479.2589,985.8113 C476.8389,979.5833 459.6349,987.8963 452.2619,988.1883 C440.1299,994.2773 425.1129,976.9263 435.6899,969.9753 C450.4979,967.2703 520.6229,942.3113 503.6229,975.1903 C492.8339,972.6043 484.3669,975.3483 479.2589,985.8113" id="Fill-52" fill="#3BA8DF" blush:i="0.0.0.0.25"/><path d="M713.6842,1209.2341 C703.4962,1225.1851 684.1872,1265.1901 661.9212,1247.0031 C660.4582,1216.5271 683.7242,1198.5931 713.6842,1209.2341" id="Fill-54" fill="#3BA8DF" blush:i="0.0.0.0.26"/><path d="M103.1183,846.3923 C108.2623,849.8643 141.2793,850.0643 127.2293,858.5843 C126.1213,859.3093 126.3613,859.6773 132.8523,861.7143 C120.4033,886.0203 81.4933,856.2283 59.6493,856.6863 C45.3393,835.4973 91.8293,844.2083 103.1183,846.3923" id="Fill-56" fill="#09ED98" blush:i="0.0.0.0.27"/><path d="M713.6842,1209.2341 C699.0402,1203.5581 659.1072,1213.9131 662.4512,1190.1791 C668.2012,1181.4741 686.0032,1189.6131 695.8922,1187.7291 C700.6462,1189.0391 701.7782,1182.9501 706.2602,1181.3421 C709.9642,1180.7861 712.6422,1184.2281 716.0762,1179.5921 C718.0332,1186.7431 723.8992,1178.9551 726.8212,1182.4121 C734.4832,1199.1711 729.3042,1209.7461 713.6842,1209.2341" id="Fill-58" fill="#07ED97" blush:i="0.0.0.0.28"/><path d="M323.7086,1328.3132 C314.3116,1346.7842 251.1156,1338.7892 260.6616,1312.6472 C275.4396,1309.3202 321.9536,1307.1732 323.7086,1328.3132" id="Fill-60" fill="#09ED98" blush:i="0.0.0.0.29"/><path d="M693.7443,719.0046 C712.1873,724.1136 698.3013,743.0166 683.8223,736.9326 C666.1943,728.8646 632.5823,729.0216 624.4803,711.6586 C631.0623,692.9876 676.5393,718.6766 693.7443,719.0046" id="Fill-62" fill="#09ED98" blush:i="0.0.0.0.30"/><path d="M693.7443,719.0046 C680.3063,717.6296 598.9753,692.4436 634.1333,680.1476 C654.0503,684.8606 699.8993,690.3526 693.7443,719.0046" id="Fill-64" fill="#3BA8DF" blush:i="0.0.0.0.31"/><path d="M331.9889,1088.3426 C330.0519,1103.0816 331.5559,1117.1656 339.8939,1129.9496 C297.3559,1123.3856 261.9229,1055.8626 331.9889,1088.3426" id="Fill-66" fill="#3BA8DF" blush:i="0.0.0.0.32"/><path d="M993.8859,1328.0525 C976.0699,1307.2065 1052.8979,1315.6015 1040.8029,1336.9385 C1042.2309,1356.9075 976.8529,1350.9545 993.8859,1328.0525" id="Fill-68" fill="#09ED98" blush:i="0.0.0.0.33"/><path d="M603.8282,263.8621 C612.3762,269.2431 641.7292,266.0321 636.4452,280.0011 C632.7262,287.0491 630.8112,296.4951 619.1872,291.2111 C603.8012,285.9811 566.5902,289.3791 575.1932,263.4301 C578.7102,257.3211 597.4082,263.0171 603.8282,263.8621" id="Fill-70" fill="#09ED98" blush:i="0.0.0.0.34"/><path d="M543.9879,385.7683 C555.7209,388.5683 546.8209,408.1273 536.3759,404.8053 C523.1169,402.0653 422.6959,383.6013 471.3039,367.5153 C479.1859,368.1683 486.9369,370.3913 494.7409,371.9643 C497.0849,376.0913 490.7239,382.8223 495.9569,384.4733 C509.5729,385.3123 538.4829,403.6273 543.9879,385.7683" id="Fill-72" fill="#3BA8DF" blush:i="0.0.0.0.35"/><path d="M872.819,1206.1599 C870.687,1222.2219 858.878,1218.1409 849.603,1216.2659 C841.312,1214.5899 827.885,1218.0489 827.351,1204.8119 C827.005,1196.2449 827.069,1183.2899 842.466,1184.0589 C853.291,1186.6539 884.456,1187.1919 872.819,1206.1599" id="Fill-74" fill="#09ED98" blush:i="0.0.0.0.36"/><path d="M525.0343,1361.489 C507.9683,1365.302 496.0763,1383.9 475.7133,1378.535 C468.6373,1376.671 472.1093,1371.799 472.1003,1368.04 C469.9903,1349.273 487.0773,1343.307 503.0173,1346.404 C510.8543,1350.556 530.1123,1338.713 525.0343,1361.489" id="Fill-76" fill="#09ED98" blush:i="0.0.0.0.37"/><path d="M905.9474,71.6267 C875.5704,63.7157 845.3224,80.9667 819.6304,57.4647 C806.0124,21.7357 892.1174,62.8647 905.9474,71.6267" id="Fill-78" fill="#3BA8DF" blush:i="0.0.0.0.38"/><path d="M26.9035,61.2576 C12.2545,57.2296 34.9825,44.4186 22.7255,40.2726 C34.0975,30.1266 101.3125,37.7116 70.5485,65.3966 C58.0205,69.5656 38.7735,60.5636 26.9035,61.2576" id="Fill-80" fill="#07ED97" blush:i="0.0.0.0.39"/><path d="M991.9059,1330.9421 C987.6959,1348.9021 1004.8059,1345.8621 1015.6099,1347.6231 C1011.9669,1366.1101 996.6029,1394.2081 974.6069,1382.8211 C971.9719,1367.3041 981.2879,1345.6781 991.9059,1330.9421" id="Fill-82" fill="#3BA8DF" blush:i="0.0.0.0.40"/><path d="M543.5739,386.1736 C538.4819,403.5186 509.0739,385.1486 495.9579,384.4786 C490.7239,382.8216 497.0849,376.0916 494.7419,371.9646 C498.9299,347.6786 514.1539,369.6036 523.6399,365.5626 C535.5569,363.7016 563.4519,377.1406 543.5739,386.1736" id="Fill-84" fill="#09ED98" blush:i="0.0.0.0.41"/><path d="M479.2589,985.8113 C488.1999,965.9233 509.6209,977.8253 525.3589,980.1613 C538.6269,997.7893 504.6729,1015.3633 487.7939,1003.6493 C484.8799,1003.0933 494.7739,995.2933 485.6299,999.2703 C482.3669,1000.6893 480.7249,1000.2983 478.2379,999.4073 C480.1779,994.6253 478.3939,991.4283 479.2589,985.8113" id="Fill-86" fill="#09ED98" blush:i="0.0.0.0.42"/><path d="M525.0343,1361.489 C532.2623,1328.592 474.4253,1364.412 486.1103,1329.593 C504.1253,1323.273 530.1963,1335.18 546.7963,1345.951 C558.8783,1362.399 538.2133,1367.585 525.0343,1361.489" id="Fill-88" fill="#3BA8DF" blush:i="0.0.0.0.43"/><path d="M263.6491,693.116 C257.6541,712.317 226.3681,709.518 225.9131,689.604 C219.5591,670.782 223.1481,666.031 244.9591,663.735 C251.4191,663.055 258.8021,659.648 262.7721,668.524 C260.8591,673.471 252.9421,669.005 252.1441,674.866 C250.9191,683.855 247.3971,694.911 263.6491,693.116" id="Fill-90" fill="#3BA8DF" blush:i="0.0.0.0.44"/><path d="M31.6808,1350.0144 C32.0088,1364.2404 36.5198,1374.9474 53.1008,1375.4974 C17.1468,1413.1294 -27.7072,1372.0314 31.6808,1350.0144" id="Fill-92" fill="#3BA8DF" blush:i="0.0.0.0.45"/><path d="M193.5558,991.1101 C189.6288,1010.7591 168.6058,1002.6571 153.9858,1001.7331 C149.7428,1000.6471 141.1378,1004.8591 141.8198,995.8871 C138.3168,974.2221 152.8828,973.8081 171.9658,975.2501 C166.1718,990.6621 184.3228,988.2941 193.5558,991.1101" id="Fill-94" fill="#09ED98" blush:i="0.0.0.0.46"/><path d="M640.0377,972.3924 C657.6007,962.5514 694.1517,1004.2044 679.4847,1009.6584 C662.1937,1010.2944 626.8327,991.4414 640.0377,972.3924" id="Fill-96" fill="#3BA8DF" blush:i="0.0.0.0.47"/><path d="M872.819,1206.1599 C884.454,1187.1749 853.295,1186.6709 842.465,1184.0629 C815.234,1144.8739 914.162,1197.3999 906.567,1211.5099 C898.22,1220.6029 883.318,1206.5899 872.819,1206.1599" id="Fill-98" fill="#3BA8DF" blush:i="0.0.0.0.48"/><path d="M1011.2399,487.1003 C1001.5249,506.4523 985.9299,494.3363 972.4339,494.7083 C954.5229,495.2033 958.7479,483.3263 959.4609,473.3013 C966.4339,466.2483 983.0059,474.6283 992.9979,473.5423 C990.6709,489.3923 1004.6559,483.2603 1011.2399,487.1003" id="Fill-100" fill="#09ED98" blush:i="0.0.0.0.49"/><path d="M263.6491,693.116 C247.3971,694.911 250.9191,683.855 252.1441,674.866 C263.6061,663.307 292.6341,668.86 295.0311,688.163 C296.4711,690.268 287.3231,701.664 283.6971,697.497 C278.4021,693.958 270.4321,694.426 263.6491,693.116" id="Fill-102" fill="#09ED98" blush:i="0.0.0.0.50"/><path d="M51.0075,592.5115 C36.4075,602.9685 26.7115,617.6215 26.3895,635.8505 C-34.3485,657.3415 25.2815,589.4075 51.0075,592.5115" id="Fill-104" fill="#3BA8DF" blush:i="0.0.0.0.51"/><path d="M310.4411,476.5535 C307.7541,502.7005 290.2511,487.6225 278.3411,488.0995 C263.3661,488.2755 267.5921,477.4635 267.7521,469.1795 C279.9821,466.3765 298.2501,469.9965 310.4411,476.5535" id="Fill-106" fill="#09ED98" blush:i="0.0.0.0.52"/><path d="M231.6212,109.0984 C246.8702,112.0174 238.7872,135.0344 223.7482,128.0174 C216.0352,122.3704 195.5452,131.0504 194.3562,118.4064 C192.7322,96.6584 217.5752,109.5704 231.6212,109.0984" id="Fill-108" fill="#3BA8DF" blush:i="0.0.0.0.53"/><path d="M970.0055,1124.574 C969.8925,1101.816 986.1325,1118.246 994.1355,1115.236 C999.2395,1113.317 1006.5375,1117.316 1012.8695,1118.567 C1020.2775,1121.428 1013.6665,1138.735 1005.5185,1137.989 C990.2245,1138.368 984.6765,1124.294 970.0055,1124.574" id="Fill-110" fill="#09ED98" blush:i="0.0.0.0.54"/><path d="M69.4967,40.8699 C45.3377,32.8909 25.4757,41.5509 4.8167,35.8459 C-19.6383,14.3969 75.4027,22.8849 69.4967,40.8699" id="Fill-112" fill="#3BA8DF" blush:i="0.0.0.0.55"/><path d="M193.5558,991.1101 C164.3048,991.9441 165.3398,964.4551 182.6108,968.5071 C207.5168,964.7561 225.9128,991.3001 193.5558,991.1101" id="Fill-114" fill="#3BA8DF" blush:i="0.0.0.0.56"/><path d="M231.6212,109.0984 C217.5862,109.5714 192.7192,96.6584 194.3602,118.4054 C176.0832,119.5314 182.9882,106.4434 182.8892,97.6244 C185.1672,91.2674 239.4882,95.6544 231.6212,109.0984" id="Fill-116" fill="#09ED98" blush:i="0.0.0.0.57"/><path d="M970.0055,1124.574 C976.9325,1127.35 987.2355,1123.885 989.5625,1135.164 C987.5095,1140.46 986.5795,1148.69 979.1175,1146.767 C953.9455,1152.607 939.7165,1121.481 970.0055,1124.574" id="Fill-118" fill="#3BA8DF" blush:i="0.0.0.0.58"/><path d="M520.757,569.9841 C512.886,567.5441 497.819,572.5581 496.369,561.2941 C496.466,554.5351 496.026,549.6561 505.849,550.6561 C516.402,553.3801 541.984,546.5091 543.661,560.8841 C536.548,565.2411 521.331,549.1691 520.757,569.9841" id="Fill-120" fill="#3BA8DF" blush:i="0.0.0.0.59"/><path d="M1011.2399,487.1003 C1004.6559,483.2603 990.6709,489.3923 992.9989,473.5463 C996.3349,456.5273 1007.3969,467.5293 1014.9149,467.9983 C1033.4949,467.2503 1022.9969,490.3913 1011.2399,487.1003" id="Fill-122" fill="#3BA8DF" blush:i="0.0.0.0.60"/><path d="M520.757,569.9841 C521.331,549.1691 536.548,565.2411 543.658,560.8871 C546.348,564.5001 557.947,558.9131 553.112,570.4701 C547.459,583.9851 537.774,573.5591 530.131,574.3411 C527.747,574.5851 520.918,577.4441 520.757,569.9841" id="Fill-124" fill="#09ED98" blush:i="0.0.0.0.61"/><path d="M25.9606,636.8533 C42.4386,639.6603 91.8836,655.0803 45.7486,643.8573 C39.1106,643.0473 30.4026,644.9923 25.9606,636.8533" id="Fill-126" fill="#09ED98" blush:i="0.0.0.0.62"/><path d="M20.069,39.5242 C33.281,41.8152 19.299,53.3732 22.502,60.9202 C13.645,61.7572 23.389,45.8012 20.069,39.5242" id="Fill-128" fill="#09ED98" blush:i="0.0.0.0.63"/><path d="M73.839,643.6062 C79.324,633.0332 84.808,622.4602 90.293,611.8852 C89.794,625.0472 80.36,633.5712 73.839,643.6062" id="Fill-130" fill="#09ED98" blush:i="0.0.0.0.64"/><path d="M32.4826,62.7537 C42.5736,62.3117 52.4536,63.1767 61.7796,67.4767 C52.0146,65.9017 42.2486,64.3277 32.4826,62.7537" id="Fill-132" fill="#09ED98" blush:i="0.0.0.0.65"/><path d="M478.2384,999.407 C480.7244,1000.299 482.3674,1000.689 485.6294,999.27 C494.7734,995.294 484.8794,1003.094 487.7894,1003.656 C478.8084,1002.89 478.5714,1002.786 478.2384,999.407" id="Fill-134" fill="#3BA8DF" blush:i="0.0.0.0.66"/><path d="M524.2775,997.3025 C525.7785,993.7285 527.2805,990.1555 528.7825,986.5845 C530.6835,991.5925 526.1215,993.8755 524.2775,997.3025" id="Fill-136" fill="#3BA8DF" blush:i="0.0.0.0.67"/><path d="M76.0343,57.0915 C76.8573,54.3005 77.6793,51.5095 78.5003,48.7195 C82.5263,52.9395 79.7963,55.1675 76.0343,57.0915" id="Fill-138" fill="#09ED98" blush:i="0.0.0.0.68"/><path d="M726.8214,1182.4119 C723.8994,1178.9549 718.0324,1186.7429 716.0774,1179.5949 C719.6584,1180.5339 723.2394,1181.4729 726.8214,1182.4119" id="Fill-140" fill="#09ED98" blush:i="0.0.0.0.69"/><path d="M91.1251,610.405 C91.5211,606.573 91.9171,602.742 92.3131,598.911 C94.6241,603.022 94.6461,606.897 91.1251,610.405" id="Fill-142" fill="#09ED98" blush:i="0.0.0.0.70"/><path d="M714.9923,1179.8836 C712.9333,1185.4796 708.9943,1179.8006 706.2603,1181.3416 C708.5813,1177.3226 712.0343,1180.0886 714.9923,1179.8836" id="Fill-144" fill="#09ED98" blush:i="0.0.0.0.71"/><path d="M70.548,65.3962 L76.082,59.8182 C75.551,62.9822 73,64.1402 70.548,65.3962" id="Fill-146" fill="#09ED98" blush:i="0.0.0.0.72"/><path d="M64.1388,68.1111 C66.2888,67.1981 68.4398,66.2841 70.5898,65.3711 C68.4398,66.2841 66.2888,67.1981 64.1388,68.1111" id="Fill-148" fill="#09ED98" blush:i="0.0.0.0.73"/><path d="M82.4826,595.5486 C80.0886,597.4416 78.3266,596.7826 77.0426,594.1986 C78.8566,594.6496 80.6696,595.0996 82.4826,595.5486" id="Fill-150" fill="#09ED98" blush:i="0.0.0.0.74"/><path d="M700.7609,1185.1023 C700.6099,1188.7033 697.9869,1187.7253 695.8929,1187.7333 C697.5139,1186.8563 699.1369,1185.9793 700.7609,1185.1023" id="Fill-152" fill="#09ED98" blush:i="0.0.0.0.75"/><path d="M478.7438,992.7517 C478.7568,994.1167 481.8778,995.7377 478.4188,996.8147 C478.5328,995.4587 478.6388,994.1057 478.7438,992.7517" id="Fill-154" fill="#3BA8DF" blush:i="0.0.0.0.76"/><path d="M91.7936,598.6277 C89.3926,598.8307 87.1436,598.6487 85.7746,596.2427 C87.7816,597.0377 89.7876,597.8327 91.7936,598.6277" id="Fill-156" fill="#09ED98" blush:i="0.0.0.0.77"/><path d="M495.1842,1005.3338 C496.7162,1005.7178 498.2482,1006.1008 499.7752,1006.4818 C498.2412,1006.0988 496.7122,1005.7158 495.1842,1005.3338" id="Fill-158" fill="#3BA8DF" blush:i="0.0.0.0.78"/><path d="M520.0182,1001.8152 C520.8702,1001.0522 521.7232,1000.2912 522.5662,999.5302 C521.7102,1000.2922 520.8642,1001.0532 520.0182,1001.8152" id="Fill-160" fill="#3BA8DF" blush:i="0.0.0.0.79"/><path d="M70.4972,646.1296 C71.6262,645.2756 72.7552,644.4196 73.8842,643.5656 C72.7552,644.4206 71.6262,645.2756 70.4972,646.1296" id="Fill-162" fill="#09ED98" blush:i="0.0.0.0.80"/><path d="M70.3688,593.7136 C69.3208,593.5736 68.2728,593.4336 67.2248,593.2936 C68.2728,593.4336 69.3208,593.5736 70.3688,593.7136" id="Fill-164" fill="#09ED98" blush:i="0.0.0.0.81"/><path d="M61.5372,592.8415 C60.6002,592.8145 59.6622,592.7855 58.7252,592.7585 C59.6622,592.7865 60.6002,592.8145 61.5372,592.8415" id="Fill-166" fill="#09ED98" blush:i="0.0.0.0.82"/><path d="M69.4967,40.8699 C69.4967,40.8699 69.6537,40.4329 69.6527,40.4329 C70.7437,41.0629 71.8337,41.6939 72.9257,42.3249 C71.7827,41.8409 70.6397,41.3549 69.4967,40.8699" id="Fill-168" fill="#09ED98" blush:i="0.0.0.0.83"/><path d="M339.9357,1129.9744 C340.9277,1130.7604 341.9187,1131.5464 342.9097,1132.3324 C341.9177,1131.5464 340.9267,1130.7604 339.9357,1129.9744" id="Fill-170" fill="#3BA8DF" blush:i="0.0.0.0.84"/><path d="M514.401,1006.6834 C514.806,1006.0354 515.212,1005.3874 515.61,1004.7424 C515.203,1005.3914 514.802,1006.0374 514.401,1006.6834" id="Fill-172" fill="#3BA8DF" blush:i="0.0.0.0.85"/><path d="M503.8971,1007.6482 C504.3681,1007.6852 504.8391,1007.7222 505.3051,1007.7572 C504.8331,1007.7192 504.3651,1007.6842 503.8971,1007.6482" id="Fill-174" fill="#3BA8DF" blush:i="0.0.0.0.86"/><path d="M26.9035,61.2576 C28.0565,59.8216 28.4055,60.7076 29.0915,61.9886 C28.3625,61.7446 27.6325,61.5006 26.9035,61.2576" id="Fill-176" fill="#09ED98" blush:i="0.0.0.0.87"/><path d="M79.4083,45.6814 C78.9843,45.0654 78.5603,44.4504 78.1373,43.8334 C78.5613,44.4504 78.9843,45.0654 79.4083,45.6814" id="Fill-178" fill="#09ED98" blush:i="0.0.0.0.88"/><path d="M993.8859,1328.0525 C993.7889,1328.5665 993.6919,1329.0805 993.5999,1329.5915 C993.6989,1329.0765 993.7919,1328.5645 993.8859,1328.0525" id="Fill-180" fill="#3BA8DF" blush:i="0.0.0.0.89"/><path d="M508.2306,1008.6619 C508.6586,1008.5079 509.0866,1008.3539 509.5106,1008.2039 C509.0816,1008.3579 508.6556,1008.5099 508.2306,1008.6619" id="Fill-182" fill="#3BA8DF" blush:i="0.0.0.0.90"/><path d="M874.6915,1206.5535 C874.6915,1206.5535 874.6825,1206.5575 874.6825,1206.5565 C874.6855,1206.5545 874.6885,1206.5535 874.6915,1206.5535" id="Fill-184" fill="#09ED98" blush:i="0.0.0.0.91"/><path d="M25.8429,45.6423 C26.6819,46.2693 29.2979,46.4423 27.8249,47.5623 C27.2479,46.9093 26.1189,46.3053 25.8429,45.6423" id="Fill-186" fill="#09ED98" blush:i="0.0.0.0.92"/><path d="M543.5739,386.1736 C543.3409,385.2636 543.3689,385.0836 543.9659,385.8286 C543.9669,385.8276 543.5739,386.1736 543.5739,386.1736" id="Fill-188" fill="#3BA8DF" blush:i="0.0.0.0.93"/></g></g></g></g></svg>